<svg width="65" height="60" viewBox="0 0 65 60" fill="none" xmlns="http://www.w3.org/2000/svg">
<path d="M2 35V31.5C2 30.3954 2.89543 29.5 4 29.5H61.5C62.6046 29.5 63.5 30.3954 63.5 31.5V35M2 35V56.5C2 57.6046 2.89543 58.5 4 58.5H32.75M2 35H17.375H32.75M63.5 35V56.5C63.5 57.6046 62.6046 58.5 61.5 58.5H32.75M63.5 35H48.125H32.75M32.75 35V40V53.5V58.5M32.75 18V2M32.75 18H17.375H4C2.89543 18 2 17.1046 2 16V4C2 2.89543 2.89543 2 4 2H32.75M32.75 18H48.125H61.5C62.6046 18 63.5 17.1046 63.5 16V4C63.5 2.89543 62.6046 2 61.5 2H32.75M13.5 13H17.5H21.5M44.125 13H48.125H52.125M42 47H43.75H45.5M20.25 47H22H23.75M17.375 40H9.375C8.27043 40 7.375 40.8954 7.375 42V51.5C7.375 52.6046 8.27043 53.5 9.375 53.5H17.375H25.375C26.4796 53.5 27.375 52.6046 27.375 51.5V42C27.375 40.8954 26.4796 40 25.375 40H17.375ZM48.125 40H40.125C39.0204 40 38.125 40.8954 38.125 42V51.5C38.125 52.6046 39.0204 53.5 40.125 53.5H56.125C57.2296 53.5 58.125 52.6046 58.125 51.5V42C58.125 40.8954 57.2296 40 56.125 40H48.125Z" stroke="#222222" stroke-width="3"/>
</svg>
