<svg width="37" height="66" viewBox="0 0 37 66" fill="none" xmlns="http://www.w3.org/2000/svg">
<path d="M5 43.5H4C2.89543 43.5 2 42.6046 2 41.5V37C2 35.8954 2.89543 35 4 35H5.5M5 43.5V62C5 63.1046 5.89543 64 7 64H8C9.10457 64 10 63.1046 10 62V43.5M5 43.5H10M10 43.5H18.75H27.5M5.5 35V4C5.5 2.89543 6.39543 2 7.5 2H18.75H30C31.1046 2 32 2.89543 32 4V35M5.5 35H11M11 35H18.75H26.5M11 35V10C11 8.89543 11.8954 8 13 8H18.75H24.5C25.6046 8 26.5 8.89543 26.5 10V35M32.5 43.5H33.5C34.6046 43.5 35.5 42.6046 35.5 41.5V37C35.5 35.8954 34.6046 35 33.5 35H32M32.5 43.5V62C32.5 63.1046 31.6046 64 30.5 64H29.5C28.3954 64 27.5 63.1046 27.5 62V43.5M32.5 43.5H27.5M32 35H26.5" stroke="#222222" stroke-width="3"/>
</svg>
