<svg width="65" height="53" viewBox="0 0 65 53" fill="none" xmlns="http://www.w3.org/2000/svg">
<path d="M16 28.5H18.75H21.5M43.5 28.5H46.25H49M59.5 42.5H61.5C62.6046 42.5 63.5 41.6046 63.5 40.5V4C63.5 2.89543 62.6046 2 61.5 2H32.75H4C2.89543 2 2 2.89543 2 4V40.5C2 41.6046 2.89543 42.5 4 42.5H52M59.5 42.5V49.5C59.5 50.6046 58.6046 51.5 57.5 51.5H57.2997C56.5094 51.5 55.7931 51.0345 55.4721 50.3123L52 42.5M59.5 42.5H52M32.75 8H9.5C8.39543 8 7.5 8.89543 7.5 10V16C7.5 17.1046 8.39543 18 9.5 18H20H32.5H55.5C56.6046 18 57.5 17.1046 57.5 16V10C57.5 8.89543 56.6046 8 55.5 8H32.75ZM18.75 23.5H9.5C8.39543 23.5 7.5 24.3954 7.5 25.5V35C7.5 36.1046 8.39543 37 9.5 37H28.5C29.6046 37 30.5 36.1046 30.5 35V25.5C30.5 24.3954 29.6046 23.5 28.5 23.5H18.75ZM46.25 23.5H55.5C56.6046 23.5 57.5 24.3954 57.5 25.5V35C57.5 36.1046 56.6046 37 55.5 37H37C35.8954 37 35 36.1046 35 35V25.5C35 24.3954 35.8954 23.5 37 23.5H46.25ZM8.20025 51.5H8C6.89543 51.5 6 50.6046 6 49.5V44.5C6 43.3954 6.89543 42.5 8 42.5H10.4225C11.8698 42.5 12.8379 43.9897 12.2501 45.3123L10.0279 50.3123C9.70687 51.0345 8.99063 51.5 8.20025 51.5Z" stroke="#222222" stroke-width="3"/>
</svg>
