<svg width="64" height="55" viewBox="0 0 64 55" fill="none" xmlns="http://www.w3.org/2000/svg">
<path d="M0 53.5H2.5M31.75 53.5H63.5H61M31.75 53.5H2.5M31.75 53.5H61M2.5 53.5V32C2.5 30.8954 3.39543 30 4.5 30H31.75H38.5M61 53.5V32C61 30.8954 60.1046 30 59 30H38.5M24 39.5V43.5M39.5 39.5V43.5M38.5 30C36.9 27.2 36.5 25.1667 36.5 24.5M36.5 24.5H31.5H15.5C14.3954 24.5 13.5 23.6046 13.5 22.5V4C13.5 2.89543 14.3954 2 15.5 2H31.5H47.5C48.6046 2 49.5 2.89543 49.5 4V22.5C49.5 23.6046 48.6046 24.5 47.5 24.5H36.5ZM24.5 30C26.1 27.2 26.5 25.1667 26.5 24.5M36.5 48H53C54.1046 48 55 47.1046 55 46V37.5C55 36.3954 54.1046 35.5 53 35.5H36.5C35.3954 35.5 34.5 36.3954 34.5 37.5V46C34.5 47.1046 35.3954 48 36.5 48ZM29 37.5V46C29 47.1046 28.1046 48 27 48H10.5C9.39543 48 8.5 47.1046 8.5 46V37.5C8.5 36.3954 9.39543 35.5 10.5 35.5H27C28.1046 35.5 29 36.3954 29 37.5Z" stroke="#222222" stroke-width="3"/>
</svg>
