<svg width="65" height="52" viewBox="0 0 65 52" fill="none" xmlns="http://www.w3.org/2000/svg">
<path d="M9 13V29M9 13H17M9 13V11.3102C9 10.6428 9.35706 10.04 9.80941 9.54927C10.5485 8.74749 11 7.67647 11 6.5C11 4.01472 8.98528 2 6.5 2C4.01472 2 2 4.01472 2 6.5C2 7.51134 2.33363 8.44476 2.89682 9.19621C3.23801 9.65143 3.5 10.1793 3.5 10.7482V48C3.5 49.1046 4.39543 50 5.5 50H7C8.10457 50 9 49.1046 9 48V45M56.5 13V29M56.5 13H48.75M56.5 13V11.3102C56.5 10.6428 56.1429 10.04 55.6906 9.54927C54.9515 8.74749 54.5 7.67647 54.5 6.5C54.5 4.01472 56.5147 2 59 2C61.4853 2 63.5 4.01472 63.5 6.5C63.5 7.51134 63.1664 8.44476 62.6032 9.19621C62.262 9.65143 62 10.1793 62 10.7482V48C62 49.1046 61.1046 50 60 50H58.5C57.3954 50 56.5 49.1046 56.5 48V45M56.5 45H9M56.5 45V29M9 45V29M9 29H17M56.5 29H48.75M17 13V29M17 13H25M17 29H25M25 13V29M25 13H33M25 29H33M33 13V29M33 13H41M33 29H41M41 13V29M41 13H48.75M41 29H48.75M48.75 13V29M33 32.5C30.7909 32.5 29 34.2909 29 36.5C29 38.7091 30.7909 40.5 33 40.5C35.2091 40.5 37 38.7091 37 36.5C37 34.2909 35.2091 32.5 33 32.5Z" stroke="#222222" stroke-width="3"/>
</svg>
