<svg width="66" height="51" viewBox="0 0 66 51" fill="none" xmlns="http://www.w3.org/2000/svg">
<path d="M4.5 36.5H4C2.89543 36.5 2 37.3954 2 38.5V43C2 44.1046 2.89543 45 4 45H7M4.5 36.5V28.5C4.5 27.3954 5.39543 26.5 6.5 26.5H8.5M4.5 36.5H33H61.5M7 45V47C7 48.1046 7.89543 49 9 49H10.5C11.6046 49 12.5 48.1046 12.5 47V45M7 45H12.5M12.5 45H33H53.5M8.5 26.5V4C8.5 2.89543 9.39543 2 10.5 2H11.5C12.6046 2 13.5 2.89543 13.5 4V5.5M8.5 26.5H13.5M13.5 26.5H23.25H33M13.5 26.5V19M33 26.5H42.75H52.5M33 26.5V22.75V19M33 19C32.8333 18.3333 30.65 17 23.25 17C15.85 17 13.6667 18.3333 13.5 19M33 19C33.1667 18.3333 35.35 17 42.75 17C50.15 17 52.3333 18.3333 52.5 19M13.5 19V5.5M13.5 5.5H23.9708C24.6167 5.5 25.2151 5.17775 25.6828 4.73224C26.9442 3.53054 29.4364 2 33 2C36.5636 2 39.0558 3.53054 40.3172 4.73224C40.7849 5.17775 41.3833 5.5 42.0292 5.5H52.5M61.5 36.5H62C63.1046 36.5 64 37.3954 64 38.5V43C64 44.1046 63.1046 45 62 45H59M61.5 36.5V28.5C61.5 27.3954 60.6046 26.5 59.5 26.5H57.5M59 45V47C59 48.1046 58.1046 49 57 49H55.5C54.3954 49 53.5 48.1046 53.5 47V45M59 45H53.5M57.5 26.5V4C57.5 2.89543 56.6046 2 55.5 2H54.5C53.3954 2 52.5 2.89543 52.5 4V5.5M57.5 26.5H52.5M52.5 26.5V19M52.5 19V5.5" stroke="#222222" stroke-width="3"/>
</svg>
