<svg width="60" height="65" viewBox="0 0 60 65" fill="none" xmlns="http://www.w3.org/2000/svg">
<path d="M4.5 31.5V61.5C4.5 62.6046 5.39543 63.5 6.5 63.5H8.5C9.60457 63.5 10.5 62.6046 10.5 61.5V31.5M10.5 31.5H4C2.89543 31.5 2 30.6046 2 29.5V27C2 25.8954 2.89543 25 4 25H23.5M10.5 31.5H26M23.5 25H30.25H37M23.5 25C24.3333 24.3333 26 22.5 26 20.5M26 20.5H30.25H34.5M26 20.5H18C16.8954 20.5 16 19.6046 16 18.5V4C16 2.89543 16.8954 2 18 2H30.25H42.5C43.6046 2 44.5 2.89543 44.5 4V18.5C44.5 19.6046 43.6046 20.5 42.5 20.5H34.5M56 31.5V61.5C56 62.6046 55.1046 63.5 54 63.5H52C50.8954 63.5 50 62.6046 50 61.5V55M50 31.5H56.5C57.6046 31.5 58.5 30.6046 58.5 29.5V27C58.5 25.8954 57.6046 25 56.5 25H37M50 31.5H30.25H26M50 31.5V43.25M37 25C36.1667 24.3333 34.5 22.5 34.5 20.5M50 55H28C26.8954 55 26 54.1046 26 53V43.25M50 55V43.25M26 31.5V43.25M26 43.25H50M36.5 37H41M36.5 49H41" stroke="#222222" stroke-width="3"/>
</svg>
