<svg width="56" height="65" viewBox="0 0 56 65" fill="none" xmlns="http://www.w3.org/2000/svg">
<path d="M6 8H4C2.89543 8 2 7.10457 2 6V4C2 2.89543 2.89543 2 4 2H28.25H52.5C53.6046 2 54.5 2.89543 54.5 4V6C54.5 7.10457 53.6046 8 52.5 8H50.5M6 8H28.25H50.5M6 8V47M14.5 47L10.4019 62.0262C10.1646 62.8964 9.37431 63.5 8.47241 63.5H8C6.89543 63.5 6 62.6046 6 61.5V47M14.5 47H6M14.5 47H28.25H42M16.5 36H22M16.5 18.5H22M50.5 8V47M42 47L46.0981 62.0262C46.3354 62.8964 47.1257 63.5 48.0276 63.5H48.5C49.6046 63.5 50.5 62.6046 50.5 61.5V47M42 47H50.5M40 36H34.5M40 18.5H34.5M28.25 13H13.5C12.3954 13 11.5 13.8954 11.5 15V22.5C11.5 23.6046 12.3954 24.5 13.5 24.5H28.25H43C44.1046 24.5 45 23.6046 45 22.5V15C45 13.8954 44.1046 13 43 13H28.25ZM28.25 30H13.5C12.3954 30 11.5 30.8954 11.5 32V39.5C11.5 40.6046 12.3954 41.5 13.5 41.5H28.25H43C44.1046 41.5 45 40.6046 45 39.5V32C45 30.8954 44.1046 30 43 30H28.25Z" stroke="#222222" stroke-width="3"/>
</svg>
