<svg width="48" height="65" viewBox="0 0 48 65" fill="none" xmlns="http://www.w3.org/2000/svg">
<path d="M36 2H44.5C45.6046 2 46.5 2.89543 46.5 4V14M36 2V14M36 2H19H4C2.89543 2 2 2.89543 2 4V61.5C2 62.6046 2.89543 63.5 4 63.5H36M36 63.5H44.5C45.6046 63.5 46.5 62.6046 46.5 61.5V54M36 63.5V54M36 54H46.5M36 54V41M46.5 54V41M36 41H46.5M36 41V27M46.5 41V27M36 27H46.5M36 27V14M46.5 27V14M36 14H46.5M19 8V58.5M19 8H13H9C7.89543 8 7 8.89543 7 10V56.5C7 57.6046 7.89543 58.5 9 58.5H19M19 8H25H29C30.1046 8 31 8.89543 31 10V56.5C31 57.6046 30.1046 58.5 29 58.5H19M14 29V37M24 29V37" stroke="#222222" stroke-width="3"/>
</svg>
