<svg width="49" height="66" viewBox="0 0 49 66" fill="none" xmlns="http://www.w3.org/2000/svg">
<path d="M0 34.5H3M24.75 34.5H14.2893M14.2893 34.5C11.5659 31.5313 9.5 27.1816 9.5 21C9.5 7.4 19.5 2 24.5 2C29.7139 2 39.5 7.4 39.5 21C39.5 27.1816 37.4341 31.5313 34.7107 34.5M14.2893 34.5H3M3 34.5V62C3 63.1046 3.89543 64 5 64H24.75M24.75 40H10C8.89543 40 8 40.8954 8 42V56C8 57.1046 8.89543 58 10 58H24.75M12.5 48V49C12.5 50.1046 13.3954 51 14.5 51H17C18.1046 51 19 50.1046 19 49V48M49 34.5H46M24.25 34.5H34.7107M34.7107 34.5H46M46 34.5V62C46 63.1046 45.1046 64 44 64H24.25M24.25 40H39C40.1046 40 41 40.8954 41 42V56C41 57.1046 40.1046 58 39 58H24.25M36.5 48V49C36.5 50.1046 35.6046 51 34.5 51H32C30.8954 51 30 50.1046 30 49V48" stroke="#222222" stroke-width="3"/>
</svg>
