<svg width="113" height="131" viewBox="0 0 113 131" fill="none" xmlns="http://www.w3.org/2000/svg">
<path d="M89.9258 82.5429V128.503H85.7476H62.7673V82.5429H85.7476H89.9258Z" fill="#CF9E76"/>
<path d="M23.0742 82.5429V128.503H27.2525H56.5H62.7674V82.5429H23.0742Z" fill="#D3A06C"/>
<path d="M50.2327 82.5429V87.7866C50.2327 89.4996 48.833 90.8994 47.1199 90.8994H38.7217C37.0086 90.8994 35.6089 89.4996 35.6089 87.7866V82.5429H50.2327Z" fill="#B27946"/>
<path d="M94.104 34.4933L79.4802 53.2953H85.7476V82.5429H89.9258V130.592H102.46V53.2953H108.728L94.104 34.4933Z" fill="#FFEAA7"/>
<path d="M56.5 3.15668L77.3911 26.8054H66.9456V76.2756H46.0545V26.8054H35.6089L56.5 3.15668Z" fill="#FFEAA7"/>
<path d="M18.896 44.9389L4.27225 63.7409H10.5396V130.592H23.0742V82.5429H27.2525V63.7409H33.5198L18.896 44.9389Z" fill="#FFEAA7"/>
<path d="M43.9653 76.2755H48.1436V24.7246H40.2405L56.5 6.31329L72.7596 24.7246H64.8564V76.2755H69.0347V28.9028H82.0227L56.5 0L30.9773 28.9028H43.9653V76.2755Z" fill="black"/>
<path d="M20.9851 130.592H92.0149V80.4537H20.9851V130.592ZM87.8367 126.414H64.8564V84.632H87.8367V126.414ZM37.698 84.632H48.1435V87.7823C48.1435 88.3485 47.6819 88.8102 47.1157 88.8102H38.7258C38.1597 88.8102 37.698 88.3485 37.698 87.7823V84.632ZM25.1633 84.632H33.5198V87.7823C33.5198 90.6528 35.8554 92.9884 38.7258 92.9884H47.1157C49.9861 92.9884 52.3218 90.6528 52.3218 87.7823V84.632H60.6782V126.414H25.1633V84.632Z" fill="black"/>
<path d="M29.2476 61.6518H25.1633V76.2755H29.3416V65.83H37.792L18.896 41.5357L0 65.83H8.45045V130.592H12.6287V61.6518H8.54446L18.896 48.342L29.2476 61.6518Z" fill="black"/>
<path d="M94.104 31.0901L75.208 55.3844H83.6584V76.2755H87.8367V51.2062H83.7524L94.104 37.8965L104.456 51.2062H100.371V130.592H104.55V55.3844H113L94.104 31.0901Z" fill="black"/>
</svg>
