<svg width="113" height="113" viewBox="0 0 113 113" fill="none" xmlns="http://www.w3.org/2000/svg">
<path d="M67.0938 3.53125C67.0938 3.53125 52.9688 24.7188 24.7188 8.82812V51.2031C24.7188 51.2031 24.7187 57.012 27.3495 65.3281V65.3634L35.2595 81.5719L35.3125 82.1016C41.5275 91.6183 51.415 101.629 67.0938 109.469C109.469 88.2812 109.469 51.2031 109.469 51.2031V8.82812C81.2188 24.7188 67.0938 3.53125 67.0938 3.53125Z" fill="#CCD1D9"/>
<path d="M67.0938 58.2656C77.8202 58.2656 86.5156 49.5702 86.5156 38.8438C86.5156 28.1173 77.8202 19.4219 67.0938 19.4219C56.3673 19.4219 47.6719 28.1173 47.6719 38.8438C47.6719 49.5702 56.3673 58.2656 67.0938 58.2656Z" fill="#FCD770"/>
<path d="M38.8438 67.0938V81.2188L35.2595 81.5719L3.53125 84.75V61.7969L27.3495 65.3634L38.8438 67.0938Z" fill="#B4DD7F"/>
<path d="M65.3281 67.0938L74.1562 66.7406C76.1514 66.7406 77.4933 68.8064 76.6458 70.625C73.7855 76.7517 64.7101 87.6809 38.8438 81.2188V67.0938C38.8438 67.0938 40.6094 63.5625 47.6719 63.5625H62.7326C64.1628 63.5625 65.3281 64.7278 65.3281 66.158V67.0938Z" fill="#F0D0B4"/>
<path d="M67.0938 17.6562C55.4106 17.6562 45.9062 27.1606 45.9062 38.8438C45.9062 50.5269 55.4106 60.0312 67.0938 60.0312C78.7769 60.0312 88.2812 50.5269 88.2812 38.8438C88.2812 27.1606 78.7769 17.6562 67.0938 17.6562ZM67.0938 56.5C57.3581 56.5 49.4375 48.5794 49.4375 38.8438C49.4375 29.1081 57.3581 21.1875 67.0938 21.1875C76.8294 21.1875 84.75 29.1081 84.75 38.8438C84.75 48.5794 76.8294 56.5 67.0938 56.5Z" fill="black"/>
<path d="M68.8594 26.4844H65.3281V30.0156H58.2656V40.6094H72.3906V44.1406H58.2656V47.6719H65.3281V51.2031H68.8594V47.6719H75.9219V37.0781H61.7969V33.5469H75.9219V30.0156H68.8594V26.4844Z" fill="black"/>
<path d="M108.604 7.29032C82.1828 22.1481 69.1048 3.35474 68.5628 2.55138L67.099 0.36377L65.6283 2.54785C65.0827 3.35474 52.0047 22.1516 25.5839 7.29032L22.9531 5.80896V51.2032C22.9531 51.4239 22.9831 56.1681 24.8883 63.2147L1.76562 59.747V86.7028L34.1154 83.4682C41.6846 94.8653 52.5026 104.147 66.3045 111.049L67.0938 111.443L67.883 111.047C110.738 89.6214 111.234 51.5846 111.234 51.2032V5.80896L108.604 7.29032ZM5.29688 63.8468L37.0781 68.614V79.6191L5.29688 82.7973V63.8468ZM62.7397 72.3907C64.8832 72.3907 66.67 70.8334 67.0284 68.7923L74.1562 68.5081C74.6418 68.5081 74.8978 68.8259 74.9843 68.9636C75.0903 69.1296 75.2368 69.4668 75.0444 69.8782C72.7473 74.7866 64.8161 85.4139 40.6094 79.8204V67.6517C41.1514 66.9914 42.9753 65.3282 47.6719 65.3282H62.7397C63.1935 65.3282 63.5625 65.6972 63.5625 66.151V68.0366C63.5625 68.4904 63.1935 68.8594 62.7397 68.8594H51.2031V72.3907H62.7397ZM107.703 51.2014C107.703 51.5581 107.145 87.0083 67.0938 107.491C54.8633 101.237 45.1629 93.0149 38.1516 83.0639L38.7166 83.0074C66.2939 89.7874 75.544 77.1455 78.2454 71.3737C78.8987 69.9788 78.7945 68.3686 77.9665 67.0691C77.1349 65.7607 75.7135 64.9786 74.0927 64.9786C74.0927 64.9786 74.0909 64.9786 74.0892 64.9786L67.0055 65.2611C66.5905 63.2853 64.8355 61.7969 62.7397 61.7969H47.6719C42.0378 61.7969 39.2693 63.8415 38.058 65.1905L28.7214 63.7903C26.5303 56.4029 26.4844 51.2544 26.4844 51.2032V11.7644C49.0967 23.0503 62.7909 11.1358 67.0938 6.32982C71.3948 11.1358 85.0872 23.0485 107.703 11.7644V51.2014Z" fill="black"/>
</svg>
