<svg width="113" height="123" viewBox="0 0 113 123" fill="none" xmlns="http://www.w3.org/2000/svg">
<path d="M110.761 96.8414L108.784 112.652H73.2101L71.2338 96.8414H85.0682H96.9264H110.761Z" fill="#AAB2BD"/>
<path d="M85.0682 88.936H96.9264V96.8414H85.0682V88.936Z" fill="#969FAA"/>
<path d="M98.9027 57.3143C98.9027 45.4562 108.785 37.5508 108.785 23.7163C108.785 9.88181 96.9264 7.90546 90.9973 7.90546C85.0683 7.90546 73.2101 9.88181 73.2101 23.7163C73.2101 37.5508 83.0919 45.4562 83.0919 57.3143C83.0919 67.1961 77.1629 71.1488 77.1629 71.1488L81.5504 81.0305L85.0683 88.936H96.9264L100.444 81.0305L104.832 71.1488C104.832 71.1488 98.9027 67.1961 98.9027 57.3143Z" fill="#D3A06C"/>
<path d="M41.5884 9.88179C31.7066 3.95273 13.9195 9.88179 13.9195 9.88179L15.8958 17.7872L15.6587 18.8149C6.90341 16.7002 2.06134 11.8581 2.06134 11.8581C2.06134 11.8581 6.01405 1.97638 31.7066 1.97638C57.3992 1.97638 65.3047 11.8581 65.3047 11.8581C58.3874 13.3997 51.1737 14.0321 44.9482 14.2495L44.9285 13.8345C44.9877 12.6487 43.9996 11.3245 41.5884 9.88179Z" fill="#F0D0B4"/>
<path d="M44.9285 13.8345L44.9482 14.2495C35.1455 14.5657 27.754 13.8345 27.754 13.8345V19.6647C26.4496 19.724 25.1254 19.7636 23.8013 19.7636C20.7972 19.7636 18.0698 19.388 15.6587 18.8149L15.8958 17.7872L13.9195 9.88178C13.9195 9.88178 31.7067 3.95272 41.5884 9.88178C43.9996 11.3245 44.9878 12.6487 44.9285 13.8345Z" fill="#FFEAA7"/>
<path d="M27.754 53.3616L28.1295 54.3695C25.4417 55.3775 23.1096 57.0969 21.3506 59.2906H9.96682L2.0614 11.8582C2.0614 11.8582 6.90347 16.7002 15.6587 18.8149C18.0699 19.3881 20.7972 19.7636 23.8013 19.7636C25.1255 19.7636 26.4496 19.724 27.754 19.6648V53.3616Z" fill="#CCD1D9"/>
<path d="M27.754 84.9833L29.7304 120.538C5.81647 120.044 2.0614 110.676 2.0614 110.676L9.96682 75.1015H19.0185C20.6787 79.1926 23.9792 82.4338 28.1295 83.9753L27.754 84.9833Z" fill="#CCD1D9"/>
<path d="M57.3993 75.1015L65.3047 110.676C65.3047 110.676 57.3993 120.558 31.7067 120.558C31.0347 120.558 30.3628 120.558 29.7303 120.538L27.754 84.9833L28.1295 83.9753C29.8489 84.6275 31.7264 84.9833 33.683 84.9833C40.3236 84.9833 45.9957 80.8922 48.3476 75.1015H57.3993Z" fill="#E6E9ED"/>
<path d="M65.3047 11.8582L57.3993 59.2906H46.0155C43.13 55.6739 38.6832 53.3616 33.683 53.3616C31.7264 53.3616 29.8489 53.7173 28.1295 54.3695L27.754 53.3616V19.6648V13.8345C27.754 13.8345 35.1455 14.5658 44.9482 14.2495C51.1738 14.0321 58.3874 13.3997 65.3047 11.8582Z" fill="#E6E9ED"/>
<path d="M46.0155 59.2906C47.814 61.5239 48.9998 64.2315 49.3753 67.2158C49.4544 67.8483 49.4939 68.5202 49.4939 69.1724C49.4939 71.2674 49.0789 73.2635 48.3476 75.1015H57.3993V59.2906H46.0155Z" fill="#FF826E"/>
<path d="M17.9908 67.1961C18.3663 64.2315 19.5719 61.5042 21.3506 59.2906H9.9668V75.1015H19.0185C18.2872 73.2635 17.8722 71.2674 17.8722 69.1724C17.8722 68.5005 17.9117 67.8483 17.9908 67.1961Z" fill="#FF826E"/>
<path d="M46.0155 59.2907C47.814 61.524 48.9998 64.2316 49.3753 67.2159C49.4544 67.8483 49.4939 68.5203 49.4939 69.1725C49.4939 71.2674 49.0789 73.2635 48.3476 75.1015C45.9958 80.8922 40.3236 84.9833 33.6831 84.9833C31.7265 84.9833 29.849 84.6276 28.1295 83.9754C23.9792 82.4338 20.6787 79.1926 19.0185 75.1015C18.2873 73.2635 17.8723 71.2674 17.8723 69.1725C17.8723 68.5005 17.9118 67.8483 17.9908 67.1961C18.3663 64.2316 19.5719 61.5042 21.3506 59.2907C23.1096 57.0969 25.4417 55.3775 28.1295 54.3696C29.849 53.7174 31.7265 53.3616 33.6831 53.3616C38.6833 53.3616 43.1301 55.674 46.0155 59.2907Z" fill="#FC6E51"/>
<path d="M33.6831 77.0779C38.0491 77.0779 41.5885 73.5385 41.5885 69.1724C41.5885 64.8064 38.0491 61.267 33.6831 61.267C29.317 61.267 25.7776 64.8064 25.7776 69.1724C25.7776 73.5385 29.317 77.0779 33.6831 77.0779Z" fill="#FF826E"/>
<path d="M98.9027 94.865V89.3569L107.314 70.4294L105.929 69.5044C105.877 69.4708 100.879 66.0379 100.879 57.3143C100.879 52.0611 103.047 47.5155 105.342 42.7051C108.006 37.1219 110.761 31.347 110.761 23.7163C110.761 7.21173 95.6338 5.92908 90.9973 5.92908C86.3607 5.92908 71.2337 7.21173 71.2337 23.7163C71.2337 31.347 73.9888 37.1219 76.6529 42.7051C78.9474 47.5155 81.1155 52.0611 81.1155 57.3143C81.1155 65.9193 76.2596 69.372 76.0659 69.5044L74.6805 70.4294L83.0918 89.3569V94.865H68.9945L71.4649 114.629H110.53L113 94.865H98.9027ZM86.3528 86.9596L84.5958 83.0069H97.3987L95.6417 86.9596H86.3528ZM85.0682 57.3143C85.0682 51.1658 82.6037 45.9996 80.2202 41.0034C77.7458 35.8175 75.1864 30.4537 75.1864 23.7163C75.1864 11.6783 85.0939 9.88178 90.9973 9.88178C96.9006 9.88178 106.808 11.6783 106.808 23.7163C106.808 30.4537 104.249 35.8175 101.774 41.0034C99.3908 45.9996 96.9263 51.1658 96.9263 57.3143C96.9263 62.8421 98.6339 66.6822 100.339 69.1724H85.0682V73.1251H101.792L99.1556 79.0542H82.8389L79.568 71.6942C81.5503 69.7772 85.0682 65.2533 85.0682 57.3143ZM87.0445 90.9123H94.95V94.865H87.0445V90.9123ZM107.039 110.676H74.9552L73.4729 98.8177H83.0918H98.9027H108.522L107.039 110.676Z" fill="black"/>
<path d="M99.0054 22.3644C100.642 27.2757 97.29 32.4537 97.2583 32.5011L100.547 34.6929C100.731 34.4182 105.01 27.8824 102.753 21.1134C100.353 13.9175 91.3767 13.8345 90.9973 13.8345V17.7872C91.0625 17.7872 97.4955 17.8386 99.0054 22.3644Z" fill="black"/>
<path d="M33.683 79.0541C39.1318 79.0541 43.5647 74.6212 43.5647 69.1724C43.5647 63.7236 39.1318 59.2906 33.683 59.2906C28.2342 59.2906 23.8012 63.7236 23.8012 69.1724C23.8012 74.6212 28.2342 79.0541 33.683 79.0541ZM33.683 63.2433C36.9519 63.2433 39.612 65.9035 39.612 69.1724C39.612 72.4412 36.9519 75.1014 33.683 75.1014C30.4141 75.1014 27.7539 72.4412 27.7539 69.1724C27.7539 65.9035 30.4141 63.2433 33.683 63.2433Z" fill="black"/>
<path d="M59.3756 69.1724V67.196V59.4547L67.3996 11.3146L66.8502 10.6249C66.5004 10.1901 58.0455 0 31.7066 0C4.98436 0 0.407129 10.6703 0.225304 11.1229L0.0197635 11.6368L7.9904 59.4547V67.196V69.1724V74.8821L0 110.844L0.225304 111.409C0.407129 111.866 4.98436 122.534 31.7066 122.534C58.0455 122.534 66.5004 112.344 66.8482 111.911L67.4391 111.172L59.3756 74.8821V69.1724ZM11.6407 57.3143L4.8223 16.4057C8.68212 18.8228 15.1211 21.7399 23.8012 21.7399C24.4633 21.7399 25.1175 21.7043 25.7776 21.6865V53.2627C23.7558 54.2707 21.9573 55.6502 20.4632 57.3143H11.6407ZM16.297 11.2415C20.8644 9.98849 33.2897 7.20974 40.5706 11.5775C41.0271 11.8522 41.3908 12.1032 41.6951 12.3324C33.7601 12.4253 28.0563 11.8779 27.9516 11.868L25.7776 11.6526V17.7338C25.1175 17.7516 24.4633 17.7872 23.8012 17.7872C21.6391 17.7872 19.641 17.5678 17.7911 17.2219L16.297 11.2415ZM46.9028 57.3143C43.6438 53.6857 38.9322 51.3852 33.683 51.3852C32.3233 51.3852 31.0031 51.5532 29.7303 51.8437V15.9768C35.0348 16.3464 49.1065 16.9512 62.8836 14.3681L55.7253 57.3143H46.9028ZM11.9431 61.267H17.7733C17.1528 62.5101 16.6705 63.8323 16.3543 65.2197H11.9431V61.267ZM33.683 55.3379C41.3097 55.3379 47.5175 61.5437 47.5175 69.1724C47.5175 76.7991 41.3097 83.0069 33.683 83.0069C26.0562 83.0069 19.8485 76.7991 19.8485 69.1724C19.8485 61.5437 26.0562 55.3379 33.683 55.3379ZM55.4229 61.267V65.2197H51.0117C50.6954 63.8323 50.2132 62.5101 49.5926 61.267H55.4229ZM51.4702 69.1724H55.4229V73.1251H51.0117C51.3022 71.8523 51.4702 70.5321 51.4702 69.1724ZM31.7066 3.95271C47.9147 3.95271 56.7391 8.00819 60.8341 10.7178C55.9782 11.5498 51.0828 11.9886 46.6044 12.1921C46.055 10.7929 44.7427 9.47069 42.6062 8.18803C32.0624 1.8637 14.0558 7.75126 13.2949 8.00621L11.5597 8.58528L13.4392 16.1033C9.19993 14.6744 6.22551 12.6823 4.68001 11.4846C6.67612 9.15842 13.208 3.95271 31.7066 3.95271ZM15.8958 69.1724C15.8958 70.5321 16.0638 71.8523 16.3543 73.1251H11.9431V69.1724H15.8958ZM4.15627 110.368L11.5538 77.0778H17.7733C19.5046 80.5463 22.3269 83.3666 25.7973 85.0919H25.7815L27.6373 118.482C10.3956 117.694 5.26303 111.982 4.15627 110.368ZM31.7066 118.581C31.6691 118.581 31.6355 118.579 31.5979 118.579L29.8173 86.5248C31.0643 86.8015 32.3549 86.9596 33.683 86.9596C40.6496 86.9596 46.6755 82.9239 49.5926 77.0778H55.8122L63.1425 110.057C60.8737 112.123 52.1421 118.581 31.7066 118.581Z" fill="black"/>
</svg>
