<svg width="113" height="124" viewBox="0 0 113 124" fill="none" xmlns="http://www.w3.org/2000/svg">
<path d="M100.256 67.9487L104.234 121.649H70.4224L68.4335 111.705L68.3141 111.625C70.4224 108.701 70.4224 103.749 70.4224 103.749V91.8157L70.2832 91.6764C81.8387 80.817 80.7846 72.0459 74.8974 67.9487H100.256Z" fill="#E6E9ED"/>
<path d="M100.256 59.993V67.9487H74.8974C73.8632 67.2128 72.6699 66.636 71.3572 66.2183L72.4113 65.9598V59.993H74.4002H96.2782H100.256Z" fill="#CCD1D9"/>
<path d="M44.5665 113.694L42.5776 121.649H8.76614L12.744 67.9487H38.1026C32.5535 71.8072 31.3005 79.8225 40.8671 89.8267L41.424 90.8411C39.7733 92.2532 38.5998 93.9239 38.5998 95.7935C38.5998 101.76 44.5665 113.694 44.5665 113.694Z" fill="#B4DD7F"/>
<path d="M40.5887 65.9598L40.7478 66.5366C39.7733 66.9145 38.8982 67.3918 38.1026 67.9487H12.744V59.993H16.7218H38.5998H40.5887V65.9598Z" fill="#A0D468"/>
<path d="M68.4335 111.705L70.4224 121.649H68.4335H44.5665H42.5776L44.5665 113.694H64.4556C66.2059 113.694 67.439 112.838 68.3141 111.625L68.4335 111.705Z" fill="#75B1F2"/>
<path d="M74.8974 67.9487C80.7846 72.0458 81.8387 80.8169 70.2831 91.6764C66.8622 94.8586 62.3275 98.2597 56.5 101.76C53.8348 100.169 51.4481 98.5779 49.3001 97.0265L54.5111 91.8156C58.4889 87.8378 54.5111 85.8489 52.5221 85.8489C51.1498 85.8489 45.0836 87.7383 41.424 90.841L40.8671 89.8267C31.3005 79.8225 32.5535 71.8072 38.1025 67.9487C38.8981 67.3918 39.7732 66.9145 40.7478 66.5366C41.3246 66.3178 41.9411 66.1189 42.5776 65.9598C50.5332 63.9709 56.5 71.9265 56.5 71.9265C56.5 71.9265 62.4667 63.9709 70.4223 65.9598C70.7406 66.0393 71.0588 66.1189 71.3571 66.2183C72.6698 66.636 73.8631 67.2128 74.8974 67.9487Z" fill="#FF826E"/>
<path d="M90.3114 34.1372C91.7435 34.8532 93.1755 35.8278 94.4285 36.7825L94.2893 36.9615C92.0418 38.652 89.5358 40.3625 86.7513 42.0929C78.1393 36.7228 72.1925 31.6113 68.3539 26.9175C57.9121 14.2083 62.8247 4.70136 71.8544 2.35444C80.3669 0.146753 86.7513 8.97751 86.7513 8.97751C86.7513 8.97751 93.1357 0.146753 101.628 2.35444C111.672 4.95991 116.645 16.416 101.071 31.2732C97.0141 29.7417 92.3401 28.1705 90.3114 28.1705C86.3336 28.1705 86.3336 32.1483 90.3114 34.1372Z" fill="#FF826E"/>
<path d="M44.9245 26.5794C41.086 31.3528 35.0596 36.6035 26.2487 42.0929C23.4642 40.3626 20.9582 38.6521 18.7107 36.9615L18.5715 36.7825C19.8245 35.8279 21.2565 34.8533 22.6885 34.1373C26.6664 32.1484 26.6664 28.1706 22.6885 28.1706C20.6598 28.1706 15.9859 29.7418 11.9285 31.2733C-3.64463 16.4161 1.32764 4.95998 11.3716 2.3545C19.8643 0.146814 26.2487 8.97757 26.2487 8.97757C26.2487 8.97757 32.6331 0.146814 41.1456 2.3545C50.0957 4.68153 55.0083 14.0493 44.9245 26.5794Z" fill="#FF826E"/>
<path d="M49.3002 97.0265C51.4482 98.5779 53.8349 100.169 56.5 101.76C62.3275 98.2597 66.8622 94.8586 70.2832 91.6764L70.4224 91.8156V103.749C70.4224 103.749 70.4224 108.701 68.3141 111.625C67.439 112.838 66.2059 113.694 64.4557 113.694C58.4889 113.694 44.5666 113.694 44.5666 113.694C44.5666 113.694 38.5998 101.76 38.5998 95.7934C38.5998 93.9239 39.7733 92.2532 41.4241 90.841C45.0837 87.7383 51.1498 85.8489 52.5222 85.8489C54.5111 85.8489 58.4889 87.8378 54.5111 91.8156C52.6415 93.6852 50.7521 95.5746 49.3002 97.0265Z" fill="#F0D0B4"/>
<path d="M86.7513 42.0929C89.5358 40.3625 92.0418 38.652 94.2893 36.9615L94.4285 36.7825C93.1755 35.8278 91.7435 34.8532 90.3114 34.1372C86.3336 32.1483 86.3336 28.1705 90.3114 28.1705C92.3401 28.1705 97.0141 29.7417 101.071 31.2732C102.066 31.6511 103.001 32.0091 103.856 32.3472C106.442 33.3814 108.033 35.9869 107.754 38.7515L106.223 54.0263C106.223 54.0263 104.234 59.9931 96.2782 59.9931H74.4002C74.4002 59.9931 70.3627 59.7544 68.4334 52.0374C66.6832 45.0364 68.0158 30.3782 68.3539 26.9175C72.1925 31.6113 78.1393 36.7228 86.7513 42.0929Z" fill="#F0D0B4"/>
<path d="M18.7107 36.9615C20.9582 38.6521 23.4642 40.3626 26.2487 42.0929C35.0596 36.6035 41.086 31.3528 44.9246 26.5794C46.098 29.2644 46.3765 44.8177 44.5666 52.0375C42.6373 59.7544 38.5998 59.9931 38.5998 59.9931H16.7218C8.76617 59.9931 6.77726 54.0264 6.77726 54.0264L5.2458 38.7515C4.96735 35.987 6.55848 33.3815 9.14406 32.3472C9.99929 32.0091 10.9341 31.6511 11.9285 31.2732C15.9859 29.7418 20.6599 28.1705 22.6885 28.1705C26.6664 28.1705 26.6664 32.1484 22.6885 34.1373C21.2565 34.8533 19.8245 35.8278 18.5715 36.7825L18.7107 36.9615Z" fill="#F0D0B4"/>
<path d="M18.7107 81.8711C19.8092 81.8711 20.6996 80.9807 20.6996 79.8822C20.6996 78.7838 19.8092 77.8933 18.7107 77.8933C17.6123 77.8933 16.7218 78.7838 16.7218 79.8822C16.7218 80.9807 17.6123 81.8711 18.7107 81.8711Z" fill="black"/>
<path d="M18.7107 91.8157C19.8092 91.8157 20.6996 90.9252 20.6996 89.8268C20.6996 88.7284 19.8092 87.8379 18.7107 87.8379C17.6123 87.8379 16.7218 88.7284 16.7218 89.8268C16.7218 90.9252 17.6123 91.8157 18.7107 91.8157Z" fill="black"/>
<path d="M104.61 30.5135C113.49 21.0403 113.524 13.8544 112.621 10.2405C111.416 5.41941 107.593 1.84136 102.136 0.425256C95.0332 -1.41846 89.3866 3.16597 86.7474 5.92061C84.1101 3.16398 78.4616 -1.41846 71.3592 0.425256C65.464 1.95672 61.4544 6.06978 60.635 11.4319C60.1119 14.8488 60.6608 20.4516 66.2954 27.5798C65.8539 32.208 64.7858 45.6431 66.5062 52.5208C67.4788 56.4091 68.9824 58.6983 70.4244 60.0488V63.9351C64.034 62.5906 58.9563 66.5028 56.502 68.9472C54.0497 66.5008 48.97 62.5886 42.5796 63.9351V60.0568C44.0136 58.7083 45.5232 56.419 46.4978 52.5208C48.0074 46.4805 48.3495 32.6357 47.0905 27.0866C52.3651 20.193 52.8782 14.7693 52.3671 11.4319C51.5476 6.06978 47.54 1.95672 41.6429 0.425256C34.5424 -1.41449 28.8939 3.16597 26.2547 5.92061C23.6154 3.16398 17.9649 -1.41846 10.8665 0.425256C5.40691 1.84136 1.58621 5.41941 0.378942 10.2405C-0.524023 13.8544 -0.490212 21.0403 8.38828 30.5135C5.01111 31.8659 2.90685 35.3306 3.26883 38.9524L4.7983 54.2253L4.88979 54.6569C4.96338 54.8756 6.32578 58.75 10.7551 60.7728V67.8791L6.62412 123.638H40.0299H44.5666H68.4335H72.8489H106.376L102.245 67.8791V60.7728C106.674 58.752 108.037 54.8756 108.11 54.6549L109.729 38.9504C110.091 35.3306 107.987 31.8659 104.61 30.5135ZM64.567 12.0305C65.1458 8.23571 67.986 5.40946 72.3576 4.2738C79.4242 2.44798 85.0807 10.0655 85.1344 10.1371L86.7474 12.3687L88.3604 10.1371C88.4161 10.0595 94.0228 2.43405 101.137 4.2738C105.143 5.314 107.923 7.83991 108.763 11.2051C110.012 16.1993 107.11 22.4564 100.582 28.9721C95.5682 27.1304 92.1055 26.1816 90.3115 26.1816C87.2963 26.1816 85.8225 27.8722 85.4486 29.4534C84.8838 31.848 86.4809 34.4456 89.4224 35.9174C89.9654 36.1878 90.5084 36.5061 91.0454 36.8442C89.673 37.8128 88.255 38.7814 86.7474 39.742C65.0464 25.931 63.9922 15.7876 64.567 12.0305ZM54.9089 73.1199L56.494 75.2282L58.0872 73.1239C58.1389 73.0563 63.3797 66.2582 69.9391 67.8891C73.9447 68.8915 76.6318 71.4731 77.125 74.7966C78.1493 81.6842 70.4562 90.8471 56.498 99.4352C55.0521 98.5481 53.6917 97.6531 52.381 96.7581L55.9153 93.2238C58.5506 90.5905 58.4412 88.4365 57.8843 87.094C56.9038 84.7212 54.1392 83.86 52.5222 83.86C51.0743 83.86 45.9608 85.3159 41.9133 88.0208C37.0346 82.7721 34.9522 77.7402 36.0878 73.8081C36.9132 70.948 39.4551 68.7921 43.059 67.8871C49.6144 66.2602 54.8592 73.0563 54.9089 73.1199ZM68.4335 103.749C68.4335 103.829 68.2624 111.705 64.4557 111.705H45.8096C43.9739 107.836 40.5887 99.8648 40.5887 95.7935C40.5887 91.6725 50.7381 87.9015 52.5222 87.8379C53.1487 87.8379 54.0636 88.2575 54.2108 88.6135C54.2625 88.7408 54.171 89.3415 53.1049 90.4095L43.5721 99.9424L45.3184 101.329C45.3542 101.356 48.7691 104.083 50.937 106.939L54.1074 104.535C52.6674 102.637 50.8117 100.845 49.4831 99.656L49.517 99.6221C51.3706 100.909 53.3615 102.196 55.4757 103.465L56.5 104.079L57.5243 103.465C61.9019 100.837 65.4879 98.3154 68.4335 95.9168V103.749ZM4.23942 11.2051C5.08073 7.8419 7.85923 5.31599 11.8649 4.27579C18.9454 2.44599 24.588 10.0675 24.6417 10.1391L26.2547 12.3706L27.8677 10.1391C27.9234 10.0615 33.542 2.44201 40.6444 4.27579C45.016 5.41145 47.8562 8.23769 48.435 12.0325C49.0098 15.7896 47.9537 25.933 26.2547 39.744C24.7471 38.7834 23.329 37.8148 21.9566 36.8462C22.4936 36.5081 23.0366 36.1898 23.5796 35.9193C26.5212 34.4476 28.1183 31.852 27.5534 29.4554C27.1775 27.8722 25.7037 26.1816 22.6885 26.1816C20.8945 26.1816 17.4299 27.1304 12.4178 28.9721C5.8922 22.4564 2.99038 16.1993 4.23942 11.2051ZM8.72839 53.559L7.22875 38.5566C7.04179 36.6851 8.1337 34.8931 9.88195 34.1989C19.3392 30.4498 22.074 30.1595 22.6885 30.1595C23.3688 30.1595 23.6492 30.3345 23.679 30.3663C23.7367 30.5592 23.4145 31.5497 21.7995 32.3572C17.581 34.4674 13.4998 38.5248 13.3267 38.6978L11.3756 40.649L13.8439 41.8841C13.9115 41.9179 20.6996 45.4403 20.6996 50.0486H24.6775C24.6775 45.2414 20.7116 41.6633 18.0265 39.7898C18.1976 39.6426 18.4044 39.4775 18.5914 39.3224C20.6479 40.8141 22.8417 42.3117 25.2025 43.7815L26.2527 44.4359L27.3048 43.7795C34.626 39.2209 39.8886 34.9507 43.6517 31.0545C44.0435 36.4544 43.9758 46.1901 42.6353 51.5542C41.253 57.0833 38.8226 57.9087 38.4467 58.0042H16.7218C10.9957 58.0042 9.09037 54.3844 8.72839 53.559ZM38.5998 61.982V65.3254C38.2219 65.5183 37.8719 65.7391 37.5198 65.9598H14.7329V61.982H38.5998ZM10.9082 119.66L14.5917 69.9377H33.5023C32.9752 70.7969 32.5516 71.7177 32.2671 72.7042C30.7397 77.9888 33.1065 84.3135 38.8743 90.5806C37.5099 92.0862 36.6109 93.8265 36.6109 95.7935C36.6109 101.38 41.1775 111.249 42.4603 113.914L41.0243 119.66H10.9082ZM45.1254 119.66L46.1199 115.683H64.4557C65.4501 115.683 66.3173 115.478 67.0929 115.144L67.9959 119.66H45.1254ZM72.0533 119.66L70.5 111.898C71.92 109.386 72.4113 106.128 72.4113 103.749V92.3865C80.7468 84.2558 81.604 77.8635 81.0611 74.2078C80.8303 72.6505 80.2655 71.2265 79.4719 69.9377H98.4103L102.094 119.66H72.0533ZM98.2671 61.982V65.9598H75.4543C75.1122 65.747 74.7682 65.5382 74.4002 65.3493V61.982H96.2782H98.2671ZM105.771 38.5566L104.272 53.561C103.916 54.3824 102.024 58.0042 96.2782 58.0042H74.5534C74.1774 57.9087 71.745 57.0833 70.3647 51.5542C69.1336 46.6336 69.5274 37.4687 69.951 31.6651C73.6683 35.3963 78.7559 39.4576 85.6972 43.7815L86.7493 44.4378L87.7995 43.7835C90.1603 42.3137 92.3561 40.816 94.4106 39.3244C94.5996 39.4815 94.8044 39.6446 94.9755 39.7918C92.2885 41.6633 88.3226 45.2414 88.3226 50.0486H92.3004C92.3004 46.1861 97.2528 42.8427 99.1601 41.8821L101.618 40.643L99.6733 38.6978C99.5022 38.5268 95.419 34.4674 91.2005 32.3572C89.5835 31.5497 89.2613 30.5592 89.3131 30.3802C89.3508 30.3345 89.6313 30.1595 90.3115 30.1595C90.9261 30.1595 93.6608 30.4498 103.116 34.1989C104.866 34.8911 105.958 36.6831 105.771 38.5566Z" fill="black"/>
<path d="M94.2893 81.8711C95.3878 81.8711 96.2782 80.9807 96.2782 79.8822C96.2782 78.7838 95.3878 77.8933 94.2893 77.8933C93.1909 77.8933 92.3004 78.7838 92.3004 79.8822C92.3004 80.9807 93.1909 81.8711 94.2893 81.8711Z" fill="black"/>
<path d="M94.2893 91.8157C95.3878 91.8157 96.2782 90.9252 96.2782 89.8268C96.2782 88.7284 95.3878 87.8379 94.2893 87.8379C93.1909 87.8379 92.3004 88.7284 92.3004 89.8268C92.3004 90.9252 93.1909 91.8157 94.2893 91.8157Z" fill="black"/>
</svg>
