<svg width="543" height="129" viewBox="0 0 543 129" fill="none" xmlns="http://www.w3.org/2000/svg">
<path d="M54.551 36.3425C54.551 34.1123 56.3602 32.3044 58.5918 32.3044C60.8235 32.3044 62.6327 34.1123 62.6327 36.3425L62.6327 94.8942C62.6327 97.1244 60.8235 98.9323 58.5918 98.9323H54.551C36.3674 98.5958 4.30976e-06 85.6067 0 36.3425V4.03805C0 1.8079 1.80913 1.32928e-07 4.04082 0C6.2725 -1.32928e-07 8.08163 1.8079 8.08163 4.03805L8.08163 36.3425C8.08163 72.4186 33.8283 86.6251 50.1141 90.1288C52.4648 90.6346 54.551 88.7583 54.551 86.3554L54.551 36.3425Z" fill="white"/>
<path d="M36.3674 66.6279C36.3674 68.858 38.1765 70.6659 40.4082 70.6659C42.6398 70.6659 44.449 68.858 44.449 66.6279V16.6149C44.449 14.212 46.5352 12.3358 48.8859 12.8415C65.1718 16.3452 90.9184 30.5517 90.9184 66.6279C90.9184 106.201 59.9388 119.459 44.449 121.142C42.2365 121.142 40.4082 122.934 40.4082 125.145C40.4082 127.383 42.2429 129.196 44.4722 128.983C64.8786 127.028 99 112.672 99 66.6279C99 17.3636 62.6327 4.37456 44.449 4.03805H40.4082C38.1765 4.03805 36.3674 5.84595 36.3674 8.07611V66.6279Z" fill="white"/>
<path d="M54.551 36.3425C54.551 34.1123 56.3602 32.3044 58.5918 32.3044C60.8235 32.3044 62.6327 34.1123 62.6327 36.3425L62.6327 94.8942C62.6327 97.1244 60.8235 98.9323 58.5918 98.9323H54.551C36.3674 98.5958 4.30976e-06 85.6067 0 36.3425V4.03805C0 1.8079 1.80913 1.32928e-07 4.04082 0C6.2725 -1.32928e-07 8.08163 1.8079 8.08163 4.03805L8.08163 36.3425C8.08163 72.4186 33.8283 86.6251 50.1141 90.1288C52.4648 90.6346 54.551 88.7583 54.551 86.3554L54.551 36.3425Z" fill="white"/>
<path d="M36.3674 66.6279C36.3674 68.858 38.1765 70.6659 40.4082 70.6659C42.6398 70.6659 44.449 68.858 44.449 66.6279V16.6149C44.449 14.212 46.5352 12.3358 48.8859 12.8415C65.1718 16.3452 90.9184 30.5517 90.9184 66.6279C90.9184 106.201 59.9388 119.459 44.449 121.142C42.2365 121.142 40.4082 122.934 40.4082 125.145C40.4082 127.383 42.2429 129.196 44.4722 128.983C64.8786 127.028 99 112.672 99 66.6279C99 17.3636 62.6327 4.37456 44.449 4.03805H40.4082C38.1765 4.03805 36.3674 5.84595 36.3674 8.07611V66.6279Z" fill="white"/>
<path d="M137.885 62.4719C138.572 62.4719 139.098 62.2899 139.462 61.9258C139.826 61.5618 140.089 61.2786 140.251 61.0764L157.238 35.836V60.8337C157.238 61.2787 157.4 61.6629 157.723 61.9865C158.047 62.3101 158.431 62.4719 158.876 62.4719H163.79C164.235 62.4719 164.619 62.3101 164.943 61.9865C165.266 61.6629 165.428 61.2787 165.428 60.8337V21.6382C165.428 21.1933 165.266 20.809 164.943 20.4854C164.619 20.1618 164.235 20 163.79 20H159.543C158.856 20 158.33 20.182 157.966 20.5461C157.602 20.9101 157.339 21.1933 157.177 21.3955L140.19 46.636V21.6382C140.19 21.1933 140.028 20.809 139.705 20.4854C139.381 20.1618 138.997 20 138.552 20H133.638C133.193 20 132.809 20.1618 132.485 20.4854C132.162 20.809 132 21.1933 132 21.6382V60.8337C132 61.2787 132.162 61.6629 132.485 61.9865C132.809 62.3101 133.193 62.4719 133.638 62.4719H137.885Z" fill="white"/>
<path d="M202.68 30.9213C203.125 30.9213 203.509 31.0831 203.833 31.4067C204.156 31.7303 204.318 32.1146 204.318 32.5596V60.8337C204.318 61.2787 204.156 61.6629 203.833 61.9865C203.509 62.3101 203.125 62.4719 202.68 62.4719H198.069C197.624 62.4719 197.24 62.3101 196.917 61.9865C196.593 61.6629 196.431 61.2787 196.431 60.8337V50.2157H182.235V60.8337C182.235 61.2787 182.073 61.6629 181.75 61.9865C181.426 62.3101 181.042 62.4719 180.597 62.4719H175.986C175.541 62.4719 175.157 62.3303 174.833 62.0472C174.51 61.7236 174.348 61.3191 174.348 60.8337V32.5596C174.348 32.1146 174.51 31.7303 174.833 31.4067C175.157 31.0831 175.541 30.9213 175.986 30.9213H180.597C181.042 30.9213 181.426 31.0831 181.75 31.4067C182.073 31.7303 182.235 32.1146 182.235 32.5596V42.9348H196.431V32.5596C196.431 32.1146 196.593 31.7303 196.917 31.4067C197.24 31.0831 197.624 30.9213 198.069 30.9213H202.68Z" fill="white"/>
<path d="M238.889 30.9213C239.334 30.9213 239.718 31.0831 240.041 31.4067C240.365 31.7303 240.527 32.1146 240.527 32.5596V36.564C240.527 37.009 240.365 37.3933 240.041 37.7169C239.718 38.0404 239.334 38.2022 238.889 38.2022H228.939V60.8337C228.939 61.2787 228.777 61.6629 228.454 61.9865C228.13 62.3101 227.746 62.4719 227.301 62.4719H222.69C222.246 62.4719 221.861 62.3101 221.538 61.9865C221.214 61.6629 221.052 61.2787 221.052 60.8337V38.2022H211.103C210.658 38.2022 210.274 38.0404 209.95 37.7169C209.627 37.3933 209.465 37.009 209.465 36.564V32.5596C209.465 32.1146 209.627 31.7303 209.95 31.4067C210.274 31.0831 210.658 30.9213 211.103 30.9213H238.889Z" fill="white"/>
<path d="M243.629 46.6966C243.629 44.4315 243.973 42.3079 244.66 40.3258C245.348 38.3034 246.339 36.564 247.633 35.1079C248.927 33.6112 250.484 32.4382 252.304 31.5888C254.165 30.7393 256.228 30.3146 258.493 30.3146C260.758 30.3146 262.8 30.7393 264.62 31.5888C266.481 32.3978 268.058 33.5101 269.352 34.9258C270.646 36.3011 271.637 37.9393 272.325 39.8405C273.053 41.7011 273.417 43.6629 273.417 45.7258V48.4562C273.417 48.9011 273.255 49.2854 272.932 49.609C272.608 49.9326 272.224 50.0944 271.779 50.0944H251.516C251.516 51.0247 251.698 51.8539 252.062 52.582C252.466 53.2697 252.992 53.8562 253.639 54.3416C254.286 54.827 255.035 55.191 255.884 55.4337C256.733 55.6764 257.603 55.7977 258.493 55.7977C259.787 55.7977 260.838 55.6764 261.647 55.4337C262.456 55.1506 263.124 54.8067 263.649 54.4022C264.094 54.0787 264.458 53.8562 264.741 53.7348C265.025 53.6135 265.409 53.5528 265.894 53.5528H270.748C271.192 53.5528 271.577 53.7146 271.9 54.0382C272.264 54.3618 272.426 54.7461 272.386 55.191C272.345 55.7573 272.022 56.4854 271.415 57.3753C270.849 58.2652 269.979 59.1348 268.806 59.9843C267.633 60.8337 266.177 61.5618 264.438 62.1685C262.739 62.7753 260.758 63.0786 258.493 63.0786C256.228 63.0786 254.165 62.6944 252.304 61.9258C250.484 61.1169 248.927 59.9843 247.633 58.5281C246.339 57.0719 245.348 55.3528 244.66 53.3708C243.973 51.3483 243.629 49.1236 243.629 46.6966ZM258.493 37.5955C257.32 37.5955 256.309 37.7775 255.459 38.1416C254.65 38.4652 253.963 38.9101 253.396 39.4764C252.83 40.0022 252.385 40.609 252.062 41.2966C251.779 41.9438 251.597 42.5708 251.516 43.1775H265.227C265.146 42.5708 264.984 41.9438 264.741 41.2966C264.539 40.609 264.175 40.0022 263.649 39.4764C263.164 38.9101 262.497 38.4652 261.647 38.1416C260.838 37.7775 259.787 37.5955 258.493 37.5955Z" fill="white"/>
<path d="M297.091 63.0786C295.837 63.0786 294.704 62.9573 293.693 62.7146C292.723 62.4719 291.853 62.1685 291.085 61.8045C290.357 61.4404 289.73 61.0562 289.204 60.6517C288.678 60.2067 288.253 59.8022 287.93 59.4382V72.3618C287.93 72.8067 287.768 73.191 287.444 73.5146C287.121 73.8382 286.737 74 286.292 74H281.681C281.236 74 280.852 73.8382 280.528 73.5146C280.205 73.191 280.043 72.8067 280.043 72.3618V32.5596C280.043 32.1146 280.205 31.7303 280.528 31.4067C280.852 31.0831 281.236 30.9213 281.681 30.9213H286.292C286.737 30.9213 287.121 31.0831 287.444 31.4067C287.768 31.7303 287.93 32.1146 287.93 32.5596V33.9551C288.253 33.591 288.678 33.2067 289.204 32.8022C289.73 32.3573 290.357 31.9528 291.085 31.5888C291.853 31.2247 292.723 30.9213 293.693 30.6787C294.704 30.436 295.837 30.3146 297.091 30.3146C299.113 30.3146 300.933 30.7191 302.551 31.5281C304.209 32.2966 305.604 33.3483 306.737 34.6831C307.91 35.9775 308.82 37.4944 309.467 39.2337C310.154 40.9326 310.539 42.7124 310.62 44.573C310.66 45.1798 310.68 45.8876 310.68 46.6966C310.68 47.5056 310.66 48.2135 310.62 48.8202C310.539 50.6809 310.154 52.4809 309.467 54.2202C308.82 55.9191 307.91 57.436 306.737 58.7708C305.604 60.0652 304.209 61.1169 302.551 61.9258C300.933 62.6944 299.113 63.0786 297.091 63.0786ZM302.733 48.3955C302.854 47.2629 302.854 46.1303 302.733 44.9978C302.49 42.3685 301.681 40.4876 300.306 39.3551C298.931 38.182 297.252 37.5955 295.271 37.5955C293.289 37.5955 291.61 38.182 290.235 39.3551C288.9 40.5281 288.132 42.2067 287.93 44.391C287.849 44.9978 287.808 45.7663 287.808 46.6966C287.808 47.627 287.849 48.3955 287.93 49.0022C288.132 51.1056 288.9 52.764 290.235 53.9775C291.61 55.191 293.289 55.7977 295.271 55.7977C297.252 55.7977 298.931 55.2315 300.306 54.0989C301.681 52.9258 302.49 51.0247 302.733 48.3955Z" fill="white"/>
<path d="M345.209 50.2157C345.209 52.036 344.865 53.7146 344.177 55.2517C343.53 56.7483 342.62 58.0427 341.447 59.1348C340.275 60.1865 338.859 61.0157 337.201 61.6225C335.542 62.1888 333.722 62.4719 331.741 62.4719H319.243C318.798 62.4719 318.414 62.3101 318.09 61.9865C317.767 61.6629 317.605 61.2787 317.605 60.8337V32.5596C317.605 32.1146 317.767 31.7303 318.09 31.4067C318.414 31.0831 318.798 30.9213 319.243 30.9213H323.854C324.299 30.9213 324.683 31.0831 325.006 31.4067C325.33 31.7303 325.492 32.1146 325.492 32.5596V37.9596H331.741C333.722 37.9596 335.542 38.2629 337.201 38.8697C338.859 39.436 340.275 40.2652 341.447 41.3573C342.62 42.409 343.53 43.7034 344.177 45.2404C344.865 46.7371 345.209 48.3955 345.209 50.2157ZM325.492 55.191H330.709C331.72 55.191 332.63 55.1303 333.439 55.009C334.289 54.8472 335.017 54.5843 335.623 54.2202C336.23 53.8562 336.695 53.3506 337.019 52.7034C337.342 52.0562 337.504 51.227 337.504 50.2157C337.504 49.2045 337.342 48.3753 337.019 47.7281C336.695 47.0809 336.23 46.5753 335.623 46.2112C335.017 45.8472 334.289 45.6045 333.439 45.4831C332.63 45.3214 331.72 45.2404 330.709 45.2404H325.492V55.191Z" fill="white"/>
<path d="M349.62 46.6966C349.62 44.4315 349.964 42.3079 350.651 40.3258C351.339 38.3034 352.33 36.564 353.624 35.1079C354.918 33.6112 356.476 32.4382 358.296 31.5888C360.156 30.7393 362.219 30.3146 364.484 30.3146C366.749 30.3146 368.791 30.7393 370.611 31.5888C372.472 32.3978 374.049 33.5101 375.343 34.9258C376.638 36.3011 377.628 37.9393 378.316 39.8405C379.044 41.7011 379.408 43.6629 379.408 45.7258V48.4562C379.408 48.9011 379.246 49.2854 378.923 49.609C378.599 49.9326 378.215 50.0944 377.77 50.0944H357.507C357.507 51.0247 357.689 51.8539 358.053 52.582C358.457 53.2697 358.983 53.8562 359.63 54.3416C360.277 54.827 361.026 55.191 361.875 55.4337C362.724 55.6764 363.594 55.7977 364.484 55.7977C365.778 55.7977 366.83 55.6764 367.638 55.4337C368.447 55.1506 369.115 54.8067 369.64 54.4022C370.085 54.0787 370.449 53.8562 370.732 53.7348C371.016 53.6135 371.4 53.5528 371.885 53.5528H376.739C377.184 53.5528 377.568 53.7146 377.891 54.0382C378.255 54.3618 378.417 54.7461 378.377 55.191C378.336 55.7573 378.013 56.4854 377.406 57.3753C376.84 58.2652 375.97 59.1348 374.797 59.9843C373.624 60.8337 372.168 61.5618 370.429 62.1685C368.73 62.7753 366.749 63.0786 364.484 63.0786C362.219 63.0786 360.156 62.6944 358.296 61.9258C356.476 61.1169 354.918 59.9843 353.624 58.5281C352.33 57.0719 351.339 55.3528 350.651 53.3708C349.964 51.3483 349.62 49.1236 349.62 46.6966ZM364.484 37.5955C363.311 37.5955 362.3 37.7775 361.45 38.1416C360.641 38.4652 359.954 38.9101 359.388 39.4764C358.821 40.0022 358.376 40.609 358.053 41.2966C357.77 41.9438 357.588 42.5708 357.507 43.1775H371.218C371.137 42.5708 370.975 41.9438 370.732 41.2966C370.53 40.609 370.166 40.0022 369.64 39.4764C369.155 38.9101 368.488 38.4652 367.638 38.1416C366.83 37.7775 365.778 37.5955 364.484 37.5955Z" fill="white"/>
<path d="M403.082 63.0786C401.828 63.0786 400.696 62.9573 399.684 62.7146C398.714 62.4719 397.844 62.1685 397.076 61.8045C396.348 61.4404 395.721 61.0562 395.195 60.6517C394.669 60.2067 394.244 59.8022 393.921 59.4382V72.3618C393.921 72.8067 393.759 73.191 393.436 73.5146C393.112 73.8382 392.728 74 392.283 74H387.672C387.227 74 386.843 73.8382 386.519 73.5146C386.196 73.191 386.034 72.8067 386.034 72.3618V32.5596C386.034 32.1146 386.196 31.7303 386.519 31.4067C386.843 31.0831 387.227 30.9213 387.672 30.9213H392.283C392.728 30.9213 393.112 31.0831 393.436 31.4067C393.759 31.7303 393.921 32.1146 393.921 32.5596V33.9551C394.244 33.591 394.669 33.2067 395.195 32.8022C395.721 32.3573 396.348 31.9528 397.076 31.5888C397.844 31.2247 398.714 30.9213 399.684 30.6787C400.696 30.436 401.828 30.3146 403.082 30.3146C405.104 30.3146 406.924 30.7191 408.542 31.5281C410.2 32.2966 411.596 33.3483 412.728 34.6831C413.901 35.9775 414.811 37.4944 415.458 39.2337C416.146 40.9326 416.53 42.7124 416.611 44.573C416.651 45.1798 416.671 45.8876 416.671 46.6966C416.671 47.5056 416.651 48.2135 416.611 48.8202C416.53 50.6809 416.146 52.4809 415.458 54.2202C414.811 55.9191 413.901 57.436 412.728 58.7708C411.596 60.0652 410.2 61.1169 408.542 61.9258C406.924 62.6944 405.104 63.0786 403.082 63.0786ZM408.724 48.3955C408.845 47.2629 408.845 46.1303 408.724 44.9978C408.481 42.3685 407.672 40.4876 406.297 39.3551C404.922 38.182 403.244 37.5955 401.262 37.5955C399.28 37.5955 397.601 38.182 396.226 39.3551C394.892 40.5281 394.123 42.2067 393.921 44.391C393.84 44.9978 393.8 45.7663 393.8 46.6966C393.8 47.627 393.84 48.3955 393.921 49.0022C394.123 51.1056 394.892 52.764 396.226 53.9775C397.601 55.191 399.28 55.7977 401.262 55.7977C403.244 55.7977 404.922 55.2315 406.297 54.0989C407.672 52.9258 408.481 51.0247 408.724 48.3955Z" fill="white"/>
<path d="M440.555 32.5596C440.555 32.1146 440.717 31.7303 441.04 31.4067C441.364 31.0831 441.748 30.9213 442.193 30.9213H461.789C462.234 30.9213 462.618 31.0831 462.942 31.4067C463.265 31.7303 463.427 32.1146 463.427 32.5596V55.191H464.944C465.389 55.191 465.773 55.3528 466.096 55.6764C466.42 56 466.582 56.3843 466.582 56.8292V67.5079C466.582 67.9528 466.42 68.3371 466.096 68.6607C465.773 68.9843 465.389 69.1461 464.944 69.1461H460.515C460.07 69.1461 459.645 68.9843 459.241 68.6607C458.877 68.3371 458.695 67.9528 458.695 67.5079V62.4719H442.496V67.5079C442.496 67.9528 442.335 68.3371 442.011 68.6607C441.688 68.9843 441.303 69.1461 440.858 69.1461H436.248C435.803 69.1461 435.419 68.9843 435.095 68.6607C434.771 68.3371 434.61 67.9528 434.61 67.5079V56.8292C434.61 56.3843 434.771 56 435.095 55.6764C435.419 55.3528 435.803 55.191 436.248 55.191H437.825C438.391 55.191 438.836 55.0494 439.16 54.7663C439.524 54.4427 439.807 54.0382 440.009 53.5528C440.211 53.0674 440.353 52.5213 440.434 51.9146C440.515 51.2674 440.555 50.6404 440.555 50.0337V32.5596ZM455.54 55.191V38.2022H448.442V50.8225C448.442 51.7933 448.361 52.6225 448.199 53.3101C448.078 53.9978 447.855 54.6247 447.532 55.191H455.54Z" fill="white"/>
<path d="M486.959 30.3146C489.184 30.3146 491.186 30.6584 492.966 31.3461C494.786 32.0337 496.343 32.9843 497.637 34.1978C498.972 35.4112 500.023 36.827 500.792 38.4449C501.601 40.0629 502.066 41.8022 502.187 43.6629C502.228 44.027 502.248 44.4921 502.248 45.0584C502.248 45.6247 502.248 46.191 502.248 46.7573C502.248 47.3236 502.248 47.8899 502.248 48.4562C502.248 48.982 502.228 49.427 502.187 49.791C502.025 51.6517 501.56 53.391 500.792 55.009C500.023 56.627 498.972 58.0427 497.637 59.2562C496.343 60.4292 494.786 61.3596 492.966 62.0472C491.186 62.7348 489.184 63.0786 486.959 63.0786C484.735 63.0786 482.713 62.7348 480.893 62.0472C479.113 61.3596 477.556 60.4292 476.221 59.2562C474.927 58.0427 473.896 56.627 473.127 55.009C472.359 53.391 471.894 51.6517 471.732 49.791C471.691 49.427 471.651 48.982 471.61 48.4562C471.61 47.8899 471.61 47.3236 471.61 46.7573C471.61 46.191 471.61 45.6247 471.61 45.0584C471.651 44.4921 471.691 44.027 471.732 43.6629C471.853 41.8022 472.298 40.0629 473.066 38.4449C473.875 36.827 474.927 35.4112 476.221 34.1978C477.556 32.9843 479.113 32.0337 480.893 31.3461C482.713 30.6584 484.735 30.3146 486.959 30.3146ZM494.3 43.9663C494.179 42.7124 493.876 41.6809 493.39 40.8719C492.945 40.0225 492.379 39.3551 491.692 38.8697C491.004 38.3843 490.256 38.0607 489.447 37.8989C488.638 37.6966 487.809 37.5955 486.959 37.5955C486.11 37.5955 485.281 37.6966 484.472 37.8989C483.663 38.0607 482.915 38.3843 482.227 38.8697C481.54 39.3551 480.953 40.0225 480.468 40.8719C480.023 41.6809 479.74 42.7124 479.619 43.9663C479.578 44.2899 479.538 44.6944 479.497 45.1798C479.497 45.6652 479.497 46.1708 479.497 46.6966C479.497 47.2225 479.497 47.7483 479.497 48.2742C479.538 48.7596 479.578 49.1438 479.619 49.427C479.74 50.6809 480.023 51.7326 480.468 52.582C480.953 53.391 481.54 54.0382 482.227 54.5236C482.915 55.009 483.663 55.3528 484.472 55.5551C485.281 55.7169 486.11 55.7977 486.959 55.7977C487.809 55.7977 488.638 55.7169 489.447 55.5551C490.256 55.3528 491.004 55.009 491.692 54.5236C492.379 54.0382 492.945 53.391 493.39 52.582C493.876 51.7326 494.179 50.6809 494.3 49.427C494.341 49.1438 494.361 48.7596 494.361 48.2742C494.361 47.7483 494.361 47.2225 494.361 46.6966C494.361 46.1708 494.361 45.6652 494.361 45.1798C494.361 44.6944 494.341 44.2899 494.3 43.9663Z" fill="white"/>
<path d="M526.074 47.7281L534.688 32.1348C534.81 31.8921 535.032 31.6292 535.356 31.3461C535.679 31.0629 536.246 30.9213 537.055 30.9213H541.362C541.807 30.9213 542.191 31.0831 542.515 31.4067C542.838 31.7303 543 32.1146 543 32.5596V60.8337C543 61.2787 542.838 61.6629 542.515 61.9865C542.191 62.3101 541.807 62.4719 541.362 62.4719H536.751C536.306 62.4719 535.922 62.3101 535.599 61.9865C535.275 61.6629 535.113 61.2787 535.113 60.8337V45.6045L529.35 55.7977C529.147 56.1213 528.885 56.4652 528.561 56.8292C528.237 57.1528 527.793 57.3146 527.226 57.3146H524.921C524.355 57.3146 523.91 57.1528 523.586 56.8292C523.263 56.4652 523 56.1213 522.798 55.7977L517.034 45.6045V60.8337C517.034 61.2787 516.872 61.6629 516.549 61.9865C516.225 62.3101 515.841 62.4719 515.396 62.4719H510.785C510.34 62.4719 509.956 62.3101 509.633 61.9865C509.309 61.6629 509.147 61.2787 509.147 60.8337V32.5596C509.147 32.1146 509.309 31.7303 509.633 31.4067C509.956 31.0831 510.34 30.9213 510.785 30.9213H515.093C515.902 30.9213 516.468 31.0629 516.791 31.3461C517.115 31.6292 517.337 31.8921 517.459 32.1348L526.074 47.7281Z" fill="white"/>
<path d="M136.761 113.543C135.668 113.543 134.66 113.352 133.737 112.97C132.814 112.563 132.012 112.001 131.332 111.284C130.676 110.542 130.142 109.646 129.729 108.593C129.34 107.541 129.109 106.358 129.036 105.042C129.012 104.684 129 104.301 129 103.895C129 103.464 129.012 103.07 129.036 102.711C129.109 101.396 129.34 100.212 129.729 99.1598C130.142 98.1076 130.676 97.2109 131.332 96.4696C132.012 95.7283 132.814 95.1663 133.737 94.7837C134.66 94.3772 135.668 94.1739 136.761 94.1739C138.146 94.1739 139.215 94.425 139.968 94.9272C140.745 95.4054 141.377 95.9674 141.862 96.613V88.8652C141.862 88.6022 141.96 88.375 142.154 88.1837C142.348 87.9924 142.579 87.8967 142.846 87.8967H144.231C144.498 87.8967 144.729 87.9924 144.923 88.1837C145.118 88.375 145.215 88.6022 145.215 88.8652V96.613C145.701 95.9674 146.32 95.4054 147.073 94.9272C147.85 94.425 148.931 94.1739 150.316 94.1739C151.409 94.1739 152.417 94.3772 153.34 94.7837C154.263 95.1663 155.053 95.7283 155.709 96.4696C156.389 97.2109 156.923 98.1076 157.312 99.1598C157.725 100.212 157.968 101.396 158.041 102.711C158.065 103.07 158.077 103.464 158.077 103.895C158.077 104.301 158.065 104.684 158.041 105.042C157.968 106.358 157.725 107.541 157.312 108.593C156.923 109.646 156.389 110.542 155.709 111.284C155.053 112.001 154.263 112.563 153.34 112.97C152.417 113.352 151.409 113.543 150.316 113.543C149.611 113.543 148.992 113.472 148.458 113.328C147.923 113.185 147.45 113.005 147.037 112.79C146.648 112.551 146.296 112.288 145.98 112.001C145.688 111.69 145.433 111.391 145.215 111.104V119.032C145.215 119.295 145.118 119.522 144.923 119.713C144.729 119.904 144.498 120 144.231 120H142.846C142.579 120 142.348 119.904 142.154 119.713C141.96 119.522 141.862 119.295 141.862 119.032V111.104C141.644 111.391 141.377 111.69 141.061 112.001C140.769 112.288 140.417 112.551 140.004 112.79C139.615 113.005 139.154 113.185 138.62 113.328C138.085 113.472 137.466 113.543 136.761 113.543ZM141.862 102.316C141.79 100.762 141.328 99.5304 140.478 98.6217C139.652 97.713 138.534 97.2587 137.126 97.2587C135.619 97.2587 134.466 97.7609 133.664 98.7652C132.887 99.7696 132.449 101.133 132.352 102.854C132.328 103.524 132.328 104.193 132.352 104.863C132.449 106.585 132.862 107.948 133.591 108.952C134.344 109.957 135.522 110.459 137.126 110.459C138.486 110.459 139.591 110.004 140.441 109.096C141.316 108.163 141.79 106.848 141.862 105.15C141.887 104.791 141.899 104.325 141.899 103.751C141.899 103.153 141.887 102.675 141.862 102.316ZM145.215 102.316C145.19 102.675 145.178 103.153 145.178 103.751C145.178 104.325 145.19 104.791 145.215 105.15C145.288 106.848 145.749 108.163 146.599 109.096C147.474 110.004 148.591 110.459 149.952 110.459C151.555 110.459 152.721 109.957 153.45 108.952C154.203 107.948 154.628 106.585 154.725 104.863C154.749 104.193 154.749 103.524 154.725 102.854C154.628 101.133 154.178 99.7696 153.377 98.7652C152.599 97.7609 151.458 97.2587 149.952 97.2587C148.543 97.2587 147.413 97.713 146.563 98.6217C145.737 99.5304 145.288 100.762 145.215 102.316Z" fill="white"/>
<path d="M161.3 108.486C161.3 107.529 161.494 106.692 161.883 105.975C162.271 105.258 162.806 104.648 163.486 104.146C164.166 103.643 164.955 103.237 165.854 102.926C166.777 102.615 167.749 102.376 168.769 102.209L173.907 101.384V100.917C173.907 99.6978 173.494 98.7891 172.668 98.1913C171.866 97.5696 170.858 97.2587 169.644 97.2587C168.575 97.2587 167.761 97.45 167.202 97.8326C166.668 98.2152 166.207 98.6696 165.818 99.1957C165.672 99.387 165.514 99.5185 165.344 99.5902C165.174 99.662 164.943 99.6978 164.652 99.6978H163.559C163.292 99.6978 163.049 99.6022 162.83 99.4109C162.636 99.2196 162.551 98.9924 162.575 98.7293C162.623 98.2033 162.83 97.6652 163.194 97.1152C163.583 96.5652 164.093 96.075 164.725 95.6446C165.381 95.2141 166.121 94.8674 166.947 94.6043C167.798 94.3174 168.696 94.1739 169.644 94.1739C170.737 94.1739 171.745 94.3293 172.668 94.6402C173.615 94.9511 174.417 95.4054 175.073 96.0033C175.753 96.6011 176.275 97.3424 176.64 98.2272C177.028 99.112 177.223 100.128 177.223 101.276V112.216C177.223 112.479 177.126 112.707 176.931 112.898C176.737 113.089 176.506 113.185 176.239 113.185H174.891C174.624 113.185 174.393 113.089 174.198 112.898C174.004 112.707 173.907 112.479 173.907 112.216V110.746C173.688 111.2 173.348 111.607 172.887 111.965C172.425 112.3 171.891 112.587 171.283 112.826C170.7 113.065 170.081 113.245 169.425 113.364C168.794 113.484 168.198 113.543 167.64 113.543C166.692 113.543 165.818 113.412 165.016 113.149C164.239 112.886 163.571 112.539 163.012 112.109C162.478 111.654 162.053 111.116 161.737 110.495C161.445 109.873 161.3 109.203 161.3 108.486ZM168.004 110.459C168.879 110.459 169.68 110.327 170.409 110.064C171.138 109.801 171.757 109.442 172.267 108.988C172.802 108.51 173.203 107.948 173.47 107.302C173.761 106.657 173.907 105.939 173.907 105.15V104.253L169.607 104.935C168.077 105.174 166.862 105.557 165.964 106.083C165.065 106.609 164.615 107.29 164.615 108.127C164.615 108.39 164.676 108.653 164.798 108.916C164.919 109.179 165.113 109.43 165.381 109.67C165.648 109.909 165.988 110.1 166.401 110.243C166.838 110.387 167.373 110.459 168.004 110.459Z" fill="white"/>
<path d="M193.835 87.9685C193.835 88.8054 193.64 89.5707 193.252 90.2641C192.887 90.9576 192.414 91.6391 191.831 92.3087C191.272 92.9543 190.64 93.6239 189.936 94.3174C189.256 94.987 188.588 95.7283 187.932 96.5413C188.539 96.3978 189.207 96.3261 189.936 96.3261C191.15 96.3261 192.268 96.5174 193.288 96.9C194.308 97.2826 195.183 97.8446 195.912 98.5859C196.665 99.3272 197.248 100.236 197.661 101.312C198.074 102.364 198.28 103.572 198.28 104.935C198.28 106.202 198.074 107.374 197.661 108.45C197.248 109.502 196.665 110.411 195.912 111.176C195.183 111.917 194.308 112.503 193.288 112.934C192.268 113.34 191.15 113.543 189.936 113.543C188.721 113.543 187.604 113.34 186.584 112.934C185.563 112.503 184.677 111.917 183.924 111.176C183.195 110.411 182.624 109.502 182.211 108.45C181.798 107.374 181.592 106.202 181.592 104.935C181.592 103.093 181.81 101.491 182.247 100.128C182.685 98.7413 183.231 97.5337 183.887 96.5054C184.567 95.4772 185.284 94.5804 186.037 93.8152C186.814 93.05 187.531 92.3446 188.187 91.6989C188.867 91.0533 189.426 90.4435 189.863 89.8696C190.3 89.2717 190.519 88.638 190.519 87.9685C190.519 87.7054 190.616 87.4783 190.81 87.287C191.005 87.0957 191.235 87 191.503 87H192.851C193.118 87 193.349 87.0957 193.543 87.287C193.737 87.4783 193.835 87.7054 193.835 87.9685ZM189.936 99.4109C188.235 99.4109 186.972 99.925 186.146 100.953C185.32 101.958 184.907 103.285 184.907 104.935C184.907 106.585 185.32 107.924 186.146 108.952C186.972 109.957 188.235 110.459 189.936 110.459C191.636 110.459 192.899 109.957 193.725 108.952C194.551 107.924 194.964 106.585 194.964 104.935C194.964 103.285 194.551 101.958 193.725 100.953C192.899 99.925 191.636 99.4109 189.936 99.4109Z" fill="white"/>
<path d="M211.678 113.543C210.172 113.543 208.97 113.292 208.071 112.79C207.172 112.264 206.492 111.702 206.031 111.104V119.032C206.031 119.295 205.933 119.522 205.739 119.713C205.545 119.904 205.314 120 205.047 120H203.699C203.431 120 203.201 119.904 203.006 119.713C202.812 119.522 202.715 119.295 202.715 119.032V95.5011C202.715 95.238 202.812 95.0109 203.006 94.8196C203.201 94.6283 203.431 94.5326 203.699 94.5326H205.047C205.314 94.5326 205.545 94.6283 205.739 94.8196C205.933 95.0109 206.031 95.238 206.031 95.5011V96.613C206.516 95.9674 207.209 95.4054 208.108 94.9272C209.006 94.425 210.197 94.1739 211.678 94.1739C212.82 94.1739 213.877 94.3772 214.849 94.7837C215.844 95.1663 216.707 95.7283 217.436 96.4696C218.164 97.2109 218.747 98.1076 219.185 99.1598C219.622 100.212 219.877 101.396 219.95 102.711C219.974 103.07 219.986 103.464 219.986 103.895C219.986 104.301 219.974 104.684 219.95 105.042C219.877 106.358 219.622 107.541 219.185 108.593C218.747 109.646 218.164 110.542 217.436 111.284C216.707 112.001 215.844 112.563 214.849 112.97C213.877 113.352 212.82 113.543 211.678 113.543ZM206.031 102.316C206.006 102.675 205.994 103.153 205.994 103.751C205.994 104.325 206.006 104.791 206.031 105.15C206.104 106.848 206.614 108.163 207.561 109.096C208.533 110.004 209.784 110.459 211.314 110.459C212.917 110.459 214.181 109.957 215.104 108.952C216.027 107.948 216.537 106.585 216.634 104.863C216.658 104.193 216.658 103.524 216.634 102.854C216.537 101.133 216.027 99.7696 215.104 98.7652C214.181 97.7609 212.917 97.2587 211.314 97.2587C209.808 97.2587 208.569 97.713 207.597 98.6217C206.626 99.5304 206.104 100.762 206.031 102.316Z" fill="white"/>
<path d="M239.067 113.185C238.8 113.185 238.569 113.089 238.375 112.898C238.18 112.707 238.083 112.479 238.083 112.216V100.2L227.48 112.79C227.285 113.053 227.018 113.185 226.678 113.185H225.439C225.172 113.185 224.941 113.089 224.747 112.898C224.577 112.707 224.492 112.479 224.492 112.216V95.5011C224.492 95.238 224.589 95.0109 224.783 94.8196C224.978 94.6283 225.209 94.5326 225.476 94.5326H226.824C227.091 94.5326 227.322 94.6283 227.516 94.8196C227.711 95.0109 227.808 95.238 227.808 95.5011V107.625L238.411 94.9272C238.533 94.8076 238.642 94.712 238.739 94.6402C238.86 94.5685 239.018 94.5326 239.213 94.5326H240.415C240.682 94.5326 240.913 94.6283 241.107 94.8196C241.302 95.0109 241.399 95.238 241.399 95.5011V112.216C241.399 112.479 241.302 112.707 241.107 112.898C240.913 113.089 240.682 113.185 240.415 113.185H239.067Z" fill="white"/>
<path d="M250.19 101.707L257.769 95.1424C257.915 95.0228 258.097 94.8913 258.315 94.7478C258.558 94.6043 258.85 94.5326 259.19 94.5326H260.939C261.182 94.5326 261.388 94.6163 261.558 94.7837C261.728 94.9511 261.813 95.1543 261.813 95.3935C261.813 95.513 261.789 95.6326 261.74 95.7522C261.716 95.8478 261.607 95.9674 261.413 96.1109L252.595 103.715L262.287 111.642C262.53 111.834 262.651 112.061 262.651 112.324C262.651 112.563 262.566 112.766 262.396 112.934C262.226 113.101 262.02 113.185 261.777 113.185H259.882C259.518 113.185 259.202 113.113 258.935 112.97C258.692 112.826 258.51 112.695 258.388 112.575L250.19 105.867V112.216C250.19 112.479 250.093 112.707 249.898 112.898C249.704 113.089 249.473 113.185 249.206 113.185H247.858C247.591 113.185 247.36 113.089 247.165 112.898C246.971 112.707 246.874 112.479 246.874 112.216V95.5011C246.874 95.238 246.971 95.0109 247.165 94.8196C247.36 94.6283 247.591 94.5326 247.858 94.5326H249.206C249.473 94.5326 249.704 94.6283 249.898 94.8196C250.093 95.0109 250.19 95.238 250.19 95.5011V101.707Z" fill="white"/>
<path d="M264.278 108.486C264.278 107.529 264.473 106.692 264.861 105.975C265.25 105.258 265.784 104.648 266.465 104.146C267.145 103.643 267.934 103.237 268.833 102.926C269.756 102.615 270.728 102.376 271.748 102.209L276.886 101.384V100.917C276.886 99.6978 276.473 98.7891 275.647 98.1913C274.845 97.5696 273.837 97.2587 272.623 97.2587C271.554 97.2587 270.74 97.45 270.181 97.8326C269.647 98.2152 269.185 98.6696 268.797 99.1957C268.651 99.387 268.493 99.5185 268.323 99.5902C268.153 99.662 267.922 99.6978 267.631 99.6978H266.537C266.27 99.6978 266.027 99.6022 265.809 99.4109C265.614 99.2196 265.529 98.9924 265.554 98.7293C265.602 98.2033 265.809 97.6652 266.173 97.1152C266.562 96.5652 267.072 96.075 267.703 95.6446C268.359 95.2141 269.1 94.8674 269.926 94.6043C270.776 94.3174 271.675 94.1739 272.623 94.1739C273.716 94.1739 274.724 94.3293 275.647 94.6402C276.594 94.9511 277.396 95.4054 278.052 96.0033C278.732 96.6011 279.254 97.3424 279.619 98.2272C280.007 99.112 280.202 100.128 280.202 101.276V112.216C280.202 112.479 280.104 112.707 279.91 112.898C279.716 113.089 279.485 113.185 279.218 113.185H277.87C277.602 113.185 277.372 113.089 277.177 112.898C276.983 112.707 276.886 112.479 276.886 112.216V110.746C276.667 111.2 276.327 111.607 275.865 111.965C275.404 112.3 274.869 112.587 274.262 112.826C273.679 113.065 273.06 113.245 272.404 113.364C271.772 113.484 271.177 113.543 270.618 113.543C269.671 113.543 268.797 113.412 267.995 113.149C267.218 112.886 266.55 112.539 265.991 112.109C265.456 111.654 265.031 111.116 264.716 110.495C264.424 109.873 264.278 109.203 264.278 108.486ZM270.983 110.459C271.857 110.459 272.659 110.327 273.388 110.064C274.116 109.801 274.736 109.442 275.246 108.988C275.78 108.51 276.181 107.948 276.448 107.302C276.74 106.657 276.886 105.939 276.886 105.15V104.253L272.586 104.935C271.056 105.174 269.841 105.557 268.942 106.083C268.044 106.609 267.594 107.29 267.594 108.127C267.594 108.39 267.655 108.653 267.776 108.916C267.898 109.179 268.092 109.43 268.359 109.67C268.627 109.909 268.967 110.1 269.38 110.243C269.817 110.387 270.351 110.459 270.983 110.459Z" fill="white"/>
<path d="M303.742 106.011L309.535 95.25C309.608 95.1065 309.742 94.9511 309.936 94.7837C310.155 94.6163 310.47 94.5326 310.883 94.5326H312.086C312.353 94.5326 312.584 94.6283 312.778 94.8196C312.972 95.0109 313.07 95.238 313.07 95.5011V112.216C313.07 112.479 312.972 112.707 312.778 112.898C312.584 113.089 312.353 113.185 312.086 113.185H310.738C310.47 113.185 310.24 113.089 310.045 112.898C309.851 112.707 309.754 112.479 309.754 112.216V101.42L305.454 109.239C305.333 109.454 305.175 109.658 304.98 109.849C304.81 110.04 304.543 110.136 304.179 110.136H303.304C302.94 110.136 302.661 110.04 302.466 109.849C302.296 109.658 302.15 109.454 302.029 109.239L297.729 101.42V112.216C297.729 112.479 297.632 112.707 297.438 112.898C297.244 113.089 297.013 113.185 296.746 113.185H295.397C295.13 113.185 294.899 113.089 294.705 112.898C294.511 112.707 294.414 112.479 294.414 112.216V95.5011C294.414 95.238 294.511 95.0109 294.705 94.8196C294.899 94.6283 295.13 94.5326 295.397 94.5326H296.6C297.013 94.5326 297.316 94.6163 297.511 94.7837C297.729 94.9511 297.875 95.1065 297.948 95.25L303.742 106.011Z" fill="white"/>
<path d="M317.665 102.065C317.762 100.965 318.029 99.937 318.466 98.9804C318.904 98.0239 319.474 97.187 320.179 96.4696C320.883 95.7522 321.721 95.1902 322.693 94.7837C323.689 94.3772 324.794 94.1739 326.009 94.1739C327.321 94.1739 328.487 94.3891 329.507 94.8196C330.551 95.2261 331.438 95.8239 332.167 96.613C332.896 97.4022 333.454 98.3587 333.843 99.4826C334.232 100.607 334.426 101.862 334.426 103.249V104.217C334.426 104.48 334.329 104.708 334.134 104.899C333.94 105.09 333.709 105.186 333.442 105.186H320.908V105.401C320.956 107.027 321.454 108.283 322.402 109.167C323.373 110.028 324.576 110.459 326.009 110.459C327.345 110.459 328.341 110.279 328.997 109.921C329.677 109.538 330.223 109.12 330.636 108.665C330.831 108.474 331.001 108.342 331.147 108.271C331.292 108.199 331.511 108.163 331.802 108.163H332.896C333.163 108.163 333.406 108.259 333.624 108.45C333.843 108.641 333.928 108.868 333.879 109.132C333.807 109.562 333.6 110.04 333.26 110.566C332.92 111.068 332.422 111.547 331.766 112.001C331.134 112.432 330.333 112.802 329.361 113.113C328.414 113.4 327.296 113.543 326.009 113.543C324.794 113.543 323.701 113.34 322.73 112.934C321.758 112.503 320.908 111.929 320.179 111.212C319.474 110.471 318.904 109.61 318.466 108.629C318.029 107.625 317.762 106.537 317.665 105.365C317.543 104.265 317.543 103.165 317.665 102.065ZM320.908 102.173H331.147V102.065C331.147 100.607 330.673 99.4467 329.726 98.5859C328.802 97.7011 327.564 97.2587 326.009 97.2587C325.304 97.2587 324.649 97.3783 324.041 97.6174C323.434 97.8326 322.9 98.1554 322.438 98.5859C321.976 98.9924 321.612 99.4946 321.345 100.092C321.078 100.69 320.932 101.348 320.908 102.065V102.173Z" fill="white"/>
<path d="M350.117 87.9685C350.117 88.8054 349.923 89.5707 349.534 90.2641C349.17 90.9576 348.696 91.6391 348.113 92.3087C347.555 92.9543 346.923 93.6239 346.219 94.3174C345.538 94.987 344.87 95.7283 344.215 96.5413C344.822 96.3978 345.49 96.3261 346.219 96.3261C347.433 96.3261 348.551 96.5174 349.571 96.9C350.591 97.2826 351.466 97.8446 352.194 98.5859C352.947 99.3272 353.53 100.236 353.943 101.312C354.356 102.364 354.563 103.572 354.563 104.935C354.563 106.202 354.356 107.374 353.943 108.45C353.53 109.502 352.947 110.411 352.194 111.176C351.466 111.917 350.591 112.503 349.571 112.934C348.551 113.34 347.433 113.543 346.219 113.543C345.004 113.543 343.887 113.34 342.866 112.934C341.846 112.503 340.959 111.917 340.206 111.176C339.478 110.411 338.907 109.502 338.494 108.45C338.081 107.374 337.874 106.202 337.874 104.935C337.874 103.093 338.093 101.491 338.53 100.128C338.968 98.7413 339.514 97.5337 340.17 96.5054C340.85 95.4772 341.567 94.5804 342.32 93.8152C343.097 93.05 343.814 92.3446 344.47 91.6989C345.15 91.0533 345.709 90.4435 346.146 89.8696C346.583 89.2717 346.802 88.638 346.802 87.9685C346.802 87.7054 346.899 87.4783 347.093 87.287C347.287 87.0957 347.518 87 347.785 87H349.134C349.401 87 349.632 87.0957 349.826 87.287C350.02 87.4783 350.117 87.7054 350.117 87.9685ZM346.219 99.4109C344.518 99.4109 343.255 99.925 342.429 100.953C341.603 101.958 341.19 103.285 341.19 104.935C341.19 106.585 341.603 107.924 342.429 108.952C343.255 109.957 344.518 110.459 346.219 110.459C347.919 110.459 349.182 109.957 350.008 108.952C350.834 107.924 351.247 106.585 351.247 104.935C351.247 103.285 350.834 101.958 350.008 100.953C349.182 99.925 347.919 99.4109 346.219 99.4109Z" fill="white"/>
<path d="M358.123 102.065C358.22 100.965 358.488 99.937 358.925 98.9804C359.362 98.0239 359.933 97.187 360.637 96.4696C361.342 95.7522 362.18 95.1902 363.152 94.7837C364.148 94.3772 365.253 94.1739 366.467 94.1739C367.779 94.1739 368.945 94.3891 369.965 94.8196C371.01 95.2261 371.897 95.8239 372.625 96.613C373.354 97.4022 373.913 98.3587 374.301 99.4826C374.69 100.607 374.884 101.862 374.884 103.249V104.217C374.884 104.48 374.787 104.708 374.593 104.899C374.399 105.09 374.168 105.186 373.901 105.186H361.366V105.401C361.415 107.027 361.913 108.283 362.86 109.167C363.832 110.028 365.034 110.459 366.467 110.459C367.803 110.459 368.799 110.279 369.455 109.921C370.135 109.538 370.682 109.12 371.095 108.665C371.289 108.474 371.459 108.342 371.605 108.271C371.751 108.199 371.969 108.163 372.261 108.163H373.354C373.621 108.163 373.864 108.259 374.083 108.45C374.301 108.641 374.386 108.868 374.338 109.132C374.265 109.562 374.059 110.04 373.718 110.566C373.378 111.068 372.88 111.547 372.225 112.001C371.593 112.432 370.791 112.802 369.82 113.113C368.872 113.4 367.755 113.543 366.467 113.543C365.253 113.543 364.16 113.34 363.188 112.934C362.216 112.503 361.366 111.929 360.637 111.212C359.933 110.471 359.362 109.61 358.925 108.629C358.488 107.625 358.22 106.537 358.123 105.365C358.002 104.265 358.002 103.165 358.123 102.065ZM361.366 102.173H371.605V102.065C371.605 100.607 371.131 99.4467 370.184 98.5859C369.261 97.7011 368.022 97.2587 366.467 97.2587C365.763 97.2587 365.107 97.3783 364.5 97.6174C363.892 97.8326 363.358 98.1554 362.896 98.5859C362.435 98.9924 362.071 99.4946 361.803 100.092C361.536 100.69 361.39 101.348 361.366 102.065V102.173Z" fill="white"/>
<path d="M381.394 95.5011C381.394 95.238 381.491 95.0109 381.685 94.8196C381.88 94.6283 382.11 94.5326 382.377 94.5326H394.657C394.924 94.5326 395.155 94.6283 395.349 94.8196C395.544 95.0109 395.641 95.238 395.641 95.5011V112.216C395.641 112.479 395.544 112.707 395.349 112.898C395.155 113.089 394.924 113.185 394.657 113.185H393.309C393.042 113.185 392.811 113.089 392.616 112.898C392.422 112.707 392.325 112.479 392.325 112.216V97.6174H384.709V106.979C384.709 107.96 384.6 108.857 384.382 109.67C384.187 110.459 383.847 111.14 383.361 111.714C382.9 112.288 382.28 112.742 381.503 113.077C380.726 113.388 379.766 113.543 378.624 113.543H378.187C377.92 113.543 377.689 113.448 377.495 113.257C377.301 113.065 377.203 112.838 377.203 112.575V111.427C377.203 111.164 377.301 110.937 377.495 110.746C377.689 110.554 377.92 110.459 378.187 110.459H378.624C379.742 110.459 380.483 110.148 380.847 109.526C381.211 108.88 381.394 108.02 381.394 106.943V95.5011Z" fill="white"/>
<path d="M415.668 113.185C415.401 113.185 415.17 113.089 414.976 112.898C414.781 112.707 414.684 112.479 414.684 112.216V100.2L404.081 112.79C403.887 113.053 403.619 113.185 403.279 113.185H402.04C401.773 113.185 401.542 113.089 401.348 112.898C401.178 112.707 401.093 112.479 401.093 112.216V95.5011C401.093 95.238 401.19 95.0109 401.385 94.8196C401.579 94.6283 401.81 94.5326 402.077 94.5326H403.425C403.692 94.5326 403.923 94.6283 404.117 94.8196C404.312 95.0109 404.409 95.238 404.409 95.5011V107.625L415.012 94.9272C415.134 94.8076 415.243 94.712 415.34 94.6402C415.462 94.5685 415.619 94.5326 415.814 94.5326H417.016C417.283 94.5326 417.514 94.6283 417.709 94.8196C417.903 95.0109 418 95.238 418 95.5011V112.216C418 112.479 417.903 112.707 417.709 112.898C417.514 113.089 417.283 113.185 417.016 113.185H415.668Z" fill="white"/>
</svg>
