<svg width="30" height="30" viewBox="0 0 30 30" fill="none" xmlns="http://www.w3.org/2000/svg">
<path d="M26.6667 0H3.33333C1.49167 0 0 1.49167 0 3.33333V26.6667C0 28.5083 1.49167 30 3.33333 30H26.6667C28.5083 30 30 28.5083 30 26.6667V3.33333C30 1.49167 28.5083 0 26.6667 0ZM24.845 21.14L21.9533 21.18C21.9533 21.18 21.33 21.3017 20.5133 20.7383C19.4317 19.995 18.4117 18.0617 17.6167 18.3133C16.81 18.57 16.835 20.31 16.835 20.31C16.835 20.31 16.8417 20.6167 16.6567 20.8167C16.4567 21.0317 16.065 21.01 16.065 21.01H14.77C14.77 21.01 11.9133 21.2467 9.395 18.6217C6.65167 15.76 4.22833 10.1117 4.22833 10.1117C4.22833 10.1117 4.08667 9.755 4.23833 9.57333C4.41 9.37167 4.87333 9.36667 4.87333 9.36667L7.96833 9.35167C7.96833 9.35167 8.26 9.40333 8.47 9.55667C8.64167 9.68333 8.74 9.92167 8.74 9.92167C8.74 9.92167 9.24 11.19 9.90333 12.3383C11.1967 14.5767 11.7983 15.0667 12.2367 14.8267C12.8767 14.4767 12.685 11.6633 12.685 11.6633C12.685 11.6633 12.6967 10.6417 12.3633 10.1867C12.1033 9.83167 11.615 9.72667 11.4 9.7C11.225 9.67667 11.51 9.27167 11.8817 9.08833C12.4383 8.81667 13.4233 8.8 14.585 8.81167C15.49 8.82167 15.7517 8.87667 16.105 8.96333C17.1733 9.22167 16.81 10.2183 16.81 12.61C16.81 13.3767 16.6717 14.4533 17.2233 14.8083C17.4617 14.9617 18.0417 14.8317 19.49 12.365C20.1783 11.195 20.6933 9.82 20.6933 9.82C20.6933 9.82 20.8067 9.575 20.9817 9.47C21.1617 9.36167 21.4033 9.395 21.4033 9.395L24.6617 9.375C24.6617 9.375 25.64 9.25667 25.8 9.70167C25.9667 10.1667 25.435 11.2517 24.1033 13.0267C21.9183 15.9433 21.675 15.6717 23.49 17.3583C25.2233 18.97 25.5817 19.7533 25.6417 19.8517C26.3583 21.045 24.845 21.14 24.845 21.14Z" fill="#222222"/>
</svg>
