<svg width="30" height="30" viewBox="0 0 30 30" fill="none" xmlns="http://www.w3.org/2000/svg">
<path d="M26.6667 0H3.33333C1.49167 0 0 1.49167 0 3.33333V26.6667C0 28.5083 1.49167 30 3.33333 30H26.6667C28.5083 30 30 28.5083 30 26.6667V3.33333C30 1.49167 28.5083 0 26.6667 0ZM23.4167 10.8567C23.4167 11 23.4167 11.1417 23.4167 11.4283C23.4167 16.8567 19.2733 23.1433 11.7017 23.1433C9.41667 23.1433 7.27333 22.4283 5.41667 21.2867C5.70167 21.2867 6.13167 21.2867 6.41667 21.2867C8.27333 21.2867 10.1317 20.5717 11.56 19.5717C9.70333 19.5717 8.275 18.2867 7.70333 16.715C7.98833 16.715 8.275 16.8583 8.41833 16.8583C8.84667 16.8583 9.13333 16.8583 9.56167 16.715C7.705 16.2867 6.27667 14.715 6.27667 12.715C6.84833 13 7.42 13.1433 8.13333 13.2867C6.99 12.2867 6.27667 11.1433 6.27667 9.715C6.27667 9 6.42 8.28667 6.84833 7.715C8.84833 10.1433 11.8483 11.8583 15.2767 12C15.2767 11.715 15.1333 11.4283 15.1333 11C15.1333 8.715 16.99 6.85667 19.2767 6.85667C20.42 6.85667 21.5617 7.285 22.2767 8.14167C23.2767 7.99833 24.1333 7.57 24.8483 7.14167C24.5633 8.14167 23.8483 8.85667 22.9917 9.42667C23.8483 9.28333 24.5633 9.14167 25.42 8.71167C24.845 9.57167 24.1317 10.285 23.4167 10.8567Z" fill="#222222"/>
</svg>
