<svg width="271" height="64" viewBox="0 0 271 64" fill="none" xmlns="http://www.w3.org/2000/svg">
<path d="M27 18C27 16.8954 27.8954 16 29 16C30.1046 16 31 16.8954 31 18L31 47C31 48.1046 30.1046 49 29 49H27C18 48.8333 2.13312e-06 42.4 0 18V2C0 0.895431 0.89543 1.85047e-07 2 1.19209e-07C3.10457 5.33718e-08 4 0.895431 4 2L4 18C4 35.8681 16.7433 42.9044 24.804 44.6398C25.9674 44.8902 27 43.9609 27 42.7708L27 18Z" fill="#8B76AC"/>
<path d="M18 33C18 34.1046 18.8954 35 20 35C21.1046 35 22 34.1046 22 33V8.22917C22 7.03906 23.0326 6.10976 24.1961 6.36024C32.2567 8.09559 45 15.1319 45 33C45 52.6 29.6667 59.1667 22 60C20.905 60 20 60.8877 20 61.9828C20 63.0912 20.9081 63.9895 22.0115 63.8837C32.1116 62.9155 49 55.805 49 33C49 8.6 31 2.16667 22 2H20C18.8954 2 18 2.89543 18 4V33Z" fill="#8B76AC"/>
<path d="M27 18C27 16.8954 27.8954 16 29 16C30.1046 16 31 16.8954 31 18L31 47C31 48.1046 30.1046 49 29 49H27C18 48.8333 2.13312e-06 42.4 0 18V2C0 0.895431 0.89543 1.85047e-07 2 1.19209e-07C3.10457 5.33718e-08 4 0.895431 4 2L4 18C4 35.8681 16.7433 42.9044 24.804 44.6398C25.9674 44.8902 27 43.9609 27 42.7708L27 18Z" fill="#8B76AC"/>
<path d="M18 33C18 34.1046 18.8954 35 20 35C21.1046 35 22 34.1046 22 33V8.22917C22 7.03906 23.0326 6.10976 24.1961 6.36024C32.2567 8.09559 45 15.1319 45 33C45 52.6 29.6667 59.1667 22 60C20.905 60 20 60.8877 20 61.9828C20 63.0912 20.9081 63.9895 22.0115 63.8837C32.1116 62.9155 49 55.805 49 33C49 8.6 31 2.16667 22 2H20C18.8954 2 18 2.89543 18 4V33Z" fill="#8B76AC"/>
<path d="M68.25 31C68.59 31 68.85 30.91 69.03 30.73C69.21 30.55 69.34 30.41 69.42 30.31L77.82 17.83V30.19C77.82 30.41 77.9 30.6 78.06 30.76C78.22 30.92 78.41 31 78.63 31H81.06C81.28 31 81.47 30.92 81.63 30.76C81.79 30.6 81.87 30.41 81.87 30.19V10.81C81.87 10.59 81.79 10.4 81.63 10.24C81.47 10.08 81.28 10 81.06 10H78.96C78.62 10 78.36 10.09 78.18 10.27C78 10.45 77.87 10.59 77.79 10.69L69.39 23.17V10.81C69.39 10.59 69.31 10.4 69.15 10.24C68.99 10.08 68.8 10 68.58 10H66.15C65.93 10 65.74 10.08 65.58 10.24C65.42 10.4 65.34 10.59 65.34 10.81V30.19C65.34 30.41 65.42 30.6 65.58 30.76C65.74 30.92 65.93 31 66.15 31H68.25ZM100.291 15.4C100.511 15.4 100.701 15.48 100.861 15.64C101.021 15.8 101.101 15.99 101.101 16.21V30.19C101.101 30.41 101.021 30.6 100.861 30.76C100.701 30.92 100.511 31 100.291 31H98.0109C97.7909 31 97.6009 30.92 97.4409 30.76C97.2809 30.6 97.2009 30.41 97.2009 30.19V24.94H90.1809V30.19C90.1809 30.41 90.1009 30.6 89.9409 30.76C89.7809 30.92 89.5909 31 89.3709 31H87.0909C86.8709 31 86.6809 30.93 86.5209 30.79C86.3609 30.63 86.2809 30.43 86.2809 30.19V16.21C86.2809 15.99 86.3609 15.8 86.5209 15.64C86.6809 15.48 86.8709 15.4 87.0909 15.4H89.3709C89.5909 15.4 89.7809 15.48 89.9409 15.64C90.1009 15.8 90.1809 15.99 90.1809 16.21V21.34H97.2009V16.21C97.2009 15.99 97.2809 15.8 97.4409 15.64C97.6009 15.48 97.7909 15.4 98.0109 15.4H100.291ZM118.196 15.4C118.416 15.4 118.606 15.48 118.766 15.64C118.926 15.8 119.006 15.99 119.006 16.21V18.19C119.006 18.41 118.926 18.6 118.766 18.76C118.606 18.92 118.416 19 118.196 19H113.276V30.19C113.276 30.41 113.196 30.6 113.036 30.76C112.876 30.92 112.686 31 112.466 31H110.186C109.966 31 109.776 30.92 109.616 30.76C109.456 30.6 109.376 30.41 109.376 30.19V19H104.456C104.236 19 104.046 18.92 103.886 18.76C103.726 18.6 103.646 18.41 103.646 18.19V16.21C103.646 15.99 103.726 15.8 103.886 15.64C104.046 15.48 104.236 15.4 104.456 15.4H118.196ZM120.54 23.2C120.54 22.08 120.71 21.03 121.05 20.05C121.39 19.05 121.88 18.19 122.52 17.47C123.16 16.73 123.93 16.15 124.83 15.73C125.75 15.31 126.77 15.1 127.89 15.1C129.01 15.1 130.02 15.31 130.92 15.73C131.84 16.13 132.62 16.68 133.26 17.38C133.9 18.06 134.39 18.87 134.73 19.81C135.09 20.73 135.27 21.7 135.27 22.72V24.07C135.27 24.29 135.19 24.48 135.03 24.64C134.87 24.8 134.68 24.88 134.46 24.88H124.44C124.44 25.34 124.53 25.75 124.71 26.11C124.91 26.45 125.17 26.74 125.49 26.98C125.81 27.22 126.18 27.4 126.6 27.52C127.02 27.64 127.45 27.7 127.89 27.7C128.53 27.7 129.05 27.64 129.45 27.52C129.85 27.38 130.18 27.21 130.44 27.01C130.66 26.85 130.84 26.74 130.98 26.68C131.12 26.62 131.31 26.59 131.55 26.59H133.95C134.17 26.59 134.36 26.67 134.52 26.83C134.7 26.99 134.78 27.18 134.76 27.4C134.74 27.68 134.58 28.04 134.28 28.48C134 28.92 133.57 29.35 132.99 29.77C132.41 30.19 131.69 30.55 130.83 30.85C129.99 31.15 129.01 31.3 127.89 31.3C126.77 31.3 125.75 31.11 124.83 30.73C123.93 30.33 123.16 29.77 122.52 29.05C121.88 28.33 121.39 27.48 121.05 26.5C120.71 25.5 120.54 24.4 120.54 23.2ZM127.89 18.7C127.31 18.7 126.81 18.79 126.39 18.97C125.99 19.13 125.65 19.35 125.37 19.63C125.09 19.89 124.87 20.19 124.71 20.53C124.57 20.85 124.48 21.16 124.44 21.46H131.22C131.18 21.16 131.1 20.85 130.98 20.53C130.88 20.19 130.7 19.89 130.44 19.63C130.2 19.35 129.87 19.13 129.45 18.97C129.05 18.79 128.53 18.7 127.89 18.7ZM146.977 31.3C146.357 31.3 145.797 31.24 145.297 31.12C144.817 31 144.387 30.85 144.007 30.67C143.647 30.49 143.337 30.3 143.077 30.1C142.817 29.88 142.607 29.68 142.447 29.5V35.89C142.447 36.11 142.367 36.3 142.207 36.46C142.047 36.62 141.857 36.7 141.637 36.7H139.357C139.137 36.7 138.947 36.62 138.787 36.46C138.627 36.3 138.547 36.11 138.547 35.89V16.21C138.547 15.99 138.627 15.8 138.787 15.64C138.947 15.48 139.137 15.4 139.357 15.4H141.637C141.857 15.4 142.047 15.48 142.207 15.64C142.367 15.8 142.447 15.99 142.447 16.21V16.9C142.607 16.72 142.817 16.53 143.077 16.33C143.337 16.11 143.647 15.91 144.007 15.73C144.387 15.55 144.817 15.4 145.297 15.28C145.797 15.16 146.357 15.1 146.977 15.1C147.977 15.1 148.877 15.3 149.677 15.7C150.497 16.08 151.187 16.6 151.747 17.26C152.327 17.9 152.777 18.65 153.097 19.51C153.437 20.35 153.627 21.23 153.667 22.15C153.687 22.45 153.697 22.8 153.697 23.2C153.697 23.6 153.687 23.95 153.667 24.25C153.627 25.17 153.437 26.06 153.097 26.92C152.777 27.76 152.327 28.51 151.747 29.17C151.187 29.81 150.497 30.33 149.677 30.73C148.877 31.11 147.977 31.3 146.977 31.3ZM149.767 24.04C149.827 23.48 149.827 22.92 149.767 22.36C149.647 21.06 149.247 20.13 148.567 19.57C147.887 18.99 147.057 18.7 146.077 18.7C145.097 18.7 144.267 18.99 143.587 19.57C142.927 20.15 142.547 20.98 142.447 22.06C142.407 22.36 142.387 22.74 142.387 23.2C142.387 23.66 142.407 24.04 142.447 24.34C142.547 25.38 142.927 26.2 143.587 26.8C144.267 27.4 145.097 27.7 146.077 27.7C147.057 27.7 147.887 27.42 148.567 26.86C149.247 26.28 149.647 25.34 149.767 24.04ZM170.771 24.94C170.771 25.84 170.601 26.67 170.261 27.43C169.941 28.17 169.491 28.81 168.911 29.35C168.331 29.87 167.631 30.28 166.811 30.58C165.991 30.86 165.091 31 164.111 31H157.931C157.711 31 157.521 30.92 157.361 30.76C157.201 30.6 157.121 30.41 157.121 30.19V16.21C157.121 15.99 157.201 15.8 157.361 15.64C157.521 15.48 157.711 15.4 157.931 15.4H160.211C160.431 15.4 160.621 15.48 160.781 15.64C160.941 15.8 161.021 15.99 161.021 16.21V18.88H164.111C165.091 18.88 165.991 19.03 166.811 19.33C167.631 19.61 168.331 20.02 168.911 20.56C169.491 21.08 169.941 21.72 170.261 22.48C170.601 23.22 170.771 24.04 170.771 24.94ZM161.021 27.4H163.601C164.101 27.4 164.551 27.37 164.951 27.31C165.371 27.23 165.731 27.1 166.031 26.92C166.331 26.74 166.561 26.49 166.721 26.17C166.881 25.85 166.961 25.44 166.961 24.94C166.961 24.44 166.881 24.03 166.721 23.71C166.561 23.39 166.331 23.14 166.031 22.96C165.731 22.78 165.371 22.66 164.951 22.6C164.551 22.52 164.101 22.48 163.601 22.48H161.021V27.4ZM172.952 23.2C172.952 22.08 173.122 21.03 173.462 20.05C173.802 19.05 174.292 18.19 174.932 17.47C175.572 16.73 176.342 16.15 177.242 15.73C178.162 15.31 179.182 15.1 180.302 15.1C181.422 15.1 182.432 15.31 183.332 15.73C184.252 16.13 185.032 16.68 185.672 17.38C186.312 18.06 186.802 18.87 187.142 19.81C187.502 20.73 187.682 21.7 187.682 22.72V24.07C187.682 24.29 187.602 24.48 187.442 24.64C187.282 24.8 187.092 24.88 186.872 24.88H176.852C176.852 25.34 176.942 25.75 177.122 26.11C177.322 26.45 177.582 26.74 177.902 26.98C178.222 27.22 178.592 27.4 179.012 27.52C179.432 27.64 179.862 27.7 180.302 27.7C180.942 27.7 181.462 27.64 181.862 27.52C182.262 27.38 182.592 27.21 182.852 27.01C183.072 26.85 183.252 26.74 183.392 26.68C183.532 26.62 183.722 26.59 183.962 26.59H186.362C186.582 26.59 186.772 26.67 186.932 26.83C187.112 26.99 187.192 27.18 187.172 27.4C187.152 27.68 186.992 28.04 186.692 28.48C186.412 28.92 185.982 29.35 185.402 29.77C184.822 30.19 184.102 30.55 183.242 30.85C182.402 31.15 181.422 31.3 180.302 31.3C179.182 31.3 178.162 31.11 177.242 30.73C176.342 30.33 175.572 29.77 174.932 29.05C174.292 28.33 173.802 27.48 173.462 26.5C173.122 25.5 172.952 24.4 172.952 23.2ZM180.302 18.7C179.722 18.7 179.222 18.79 178.802 18.97C178.402 19.13 178.062 19.35 177.782 19.63C177.502 19.89 177.282 20.19 177.122 20.53C176.982 20.85 176.892 21.16 176.852 21.46H183.632C183.592 21.16 183.512 20.85 183.392 20.53C183.292 20.19 183.112 19.89 182.852 19.63C182.612 19.35 182.282 19.13 181.862 18.97C181.462 18.79 180.942 18.7 180.302 18.7ZM199.389 31.3C198.769 31.3 198.209 31.24 197.709 31.12C197.229 31 196.799 30.85 196.419 30.67C196.059 30.49 195.749 30.3 195.489 30.1C195.229 29.88 195.019 29.68 194.859 29.5V35.89C194.859 36.11 194.779 36.3 194.619 36.46C194.459 36.62 194.269 36.7 194.049 36.7H191.769C191.549 36.7 191.359 36.62 191.199 36.46C191.039 36.3 190.959 36.11 190.959 35.89V16.21C190.959 15.99 191.039 15.8 191.199 15.64C191.359 15.48 191.549 15.4 191.769 15.4H194.049C194.269 15.4 194.459 15.48 194.619 15.64C194.779 15.8 194.859 15.99 194.859 16.21V16.9C195.019 16.72 195.229 16.53 195.489 16.33C195.749 16.11 196.059 15.91 196.419 15.73C196.799 15.55 197.229 15.4 197.709 15.28C198.209 15.16 198.769 15.1 199.389 15.1C200.389 15.1 201.289 15.3 202.089 15.7C202.909 16.08 203.599 16.6 204.159 17.26C204.739 17.9 205.189 18.65 205.509 19.51C205.849 20.35 206.039 21.23 206.079 22.15C206.099 22.45 206.109 22.8 206.109 23.2C206.109 23.6 206.099 23.95 206.079 24.25C206.039 25.17 205.849 26.06 205.509 26.92C205.189 27.76 204.739 28.51 204.159 29.17C203.599 29.81 202.909 30.33 202.089 30.73C201.289 31.11 200.389 31.3 199.389 31.3ZM202.179 24.04C202.239 23.48 202.239 22.92 202.179 22.36C202.059 21.06 201.659 20.13 200.979 19.57C200.299 18.99 199.469 18.7 198.489 18.7C197.509 18.7 196.679 18.99 195.999 19.57C195.339 20.15 194.959 20.98 194.859 22.06C194.819 22.36 194.799 22.74 194.799 23.2C194.799 23.66 194.819 24.04 194.859 24.34C194.959 25.38 195.339 26.2 195.999 26.8C196.679 27.4 197.509 27.7 198.489 27.7C199.469 27.7 200.299 27.42 200.979 26.86C201.659 26.28 202.059 25.34 202.179 24.04ZM217.919 16.21C217.919 15.99 217.999 15.8 218.159 15.64C218.319 15.48 218.509 15.4 218.729 15.4H228.419C228.639 15.4 228.829 15.48 228.989 15.64C229.149 15.8 229.229 15.99 229.229 16.21V27.4H229.979C230.199 27.4 230.389 27.48 230.549 27.64C230.709 27.8 230.789 27.99 230.789 28.21V33.49C230.789 33.71 230.709 33.9 230.549 34.06C230.389 34.22 230.199 34.3 229.979 34.3H227.789C227.569 34.3 227.359 34.22 227.159 34.06C226.979 33.9 226.889 33.71 226.889 33.49V31H218.879V33.49C218.879 33.71 218.799 33.9 218.639 34.06C218.479 34.22 218.289 34.3 218.069 34.3H215.789C215.569 34.3 215.379 34.22 215.219 34.06C215.059 33.9 214.979 33.71 214.979 33.49V28.21C214.979 27.99 215.059 27.8 215.219 27.64C215.379 27.48 215.569 27.4 215.789 27.4H216.569C216.849 27.4 217.069 27.33 217.229 27.19C217.409 27.03 217.549 26.83 217.649 26.59C217.749 26.35 217.819 26.08 217.859 25.78C217.899 25.46 217.919 25.15 217.919 24.85V16.21ZM225.329 27.4V19H221.819V25.24C221.819 25.72 221.779 26.13 221.699 26.47C221.639 26.81 221.529 27.12 221.369 27.4H225.329ZM240.866 15.1C241.966 15.1 242.956 15.27 243.836 15.61C244.736 15.95 245.506 16.42 246.146 17.02C246.806 17.62 247.326 18.32 247.706 19.12C248.106 19.92 248.336 20.78 248.396 21.7C248.416 21.88 248.426 22.11 248.426 22.39C248.426 22.67 248.426 22.95 248.426 23.23C248.426 23.51 248.426 23.79 248.426 24.07C248.426 24.33 248.416 24.55 248.396 24.73C248.316 25.65 248.086 26.51 247.706 27.31C247.326 28.11 246.806 28.81 246.146 29.41C245.506 29.99 244.736 30.45 243.836 30.79C242.956 31.13 241.966 31.3 240.866 31.3C239.766 31.3 238.766 31.13 237.866 30.79C236.986 30.45 236.216 29.99 235.556 29.41C234.916 28.81 234.406 28.11 234.026 27.31C233.646 26.51 233.416 25.65 233.336 24.73C233.316 24.55 233.296 24.33 233.276 24.07C233.276 23.79 233.276 23.51 233.276 23.23C233.276 22.95 233.276 22.67 233.276 22.39C233.296 22.11 233.316 21.88 233.336 21.7C233.396 20.78 233.616 19.92 233.996 19.12C234.396 18.32 234.916 17.62 235.556 17.02C236.216 16.42 236.986 15.95 237.866 15.61C238.766 15.27 239.766 15.1 240.866 15.1ZM244.496 21.85C244.436 21.23 244.286 20.72 244.046 20.32C243.826 19.9 243.546 19.57 243.206 19.33C242.866 19.09 242.496 18.93 242.096 18.85C241.696 18.75 241.286 18.7 240.866 18.7C240.446 18.7 240.036 18.75 239.636 18.85C239.236 18.93 238.866 19.09 238.526 19.33C238.186 19.57 237.896 19.9 237.656 20.32C237.436 20.72 237.296 21.23 237.236 21.85C237.216 22.01 237.196 22.21 237.176 22.45C237.176 22.69 237.176 22.94 237.176 23.2C237.176 23.46 237.176 23.72 237.176 23.98C237.196 24.22 237.216 24.41 237.236 24.55C237.296 25.17 237.436 25.69 237.656 26.11C237.896 26.51 238.186 26.83 238.526 27.07C238.866 27.31 239.236 27.48 239.636 27.58C240.036 27.66 240.446 27.7 240.866 27.7C241.286 27.7 241.696 27.66 242.096 27.58C242.496 27.48 242.866 27.31 243.206 27.07C243.546 26.83 243.826 26.51 244.046 26.11C244.286 25.69 244.436 25.17 244.496 24.55C244.516 24.41 244.526 24.22 244.526 23.98C244.526 23.72 244.526 23.46 244.526 23.2C244.526 22.94 244.526 22.69 244.526 22.45C244.526 22.21 244.516 22.01 244.496 21.85ZM260.208 23.71L264.468 16C264.528 15.88 264.638 15.75 264.798 15.61C264.958 15.47 265.238 15.4 265.638 15.4H267.768C267.988 15.4 268.178 15.48 268.338 15.64C268.498 15.8 268.578 15.99 268.578 16.21V30.19C268.578 30.41 268.498 30.6 268.338 30.76C268.178 30.92 267.988 31 267.768 31H265.488C265.268 31 265.078 30.92 264.918 30.76C264.758 30.6 264.678 30.41 264.678 30.19V22.66L261.828 27.7C261.728 27.86 261.598 28.03 261.438 28.21C261.278 28.37 261.058 28.45 260.778 28.45H259.638C259.358 28.45 259.138 28.37 258.978 28.21C258.818 28.03 258.688 27.86 258.588 27.7L255.738 22.66V30.19C255.738 30.41 255.658 30.6 255.498 30.76C255.338 30.92 255.148 31 254.928 31H252.648C252.428 31 252.238 30.92 252.078 30.76C251.918 30.6 251.838 30.41 251.838 30.19V16.21C251.838 15.99 251.918 15.8 252.078 15.64C252.238 15.48 252.428 15.4 252.648 15.4H254.778C255.178 15.4 255.458 15.47 255.618 15.61C255.778 15.75 255.888 15.88 255.948 16L260.208 23.71Z" fill="#8B76AC"/>
<path d="M67.734 56.18C67.194 56.18 66.696 56.084 66.24 55.892C65.784 55.688 65.388 55.406 65.052 55.046C64.728 54.674 64.464 54.224 64.26 53.696C64.068 53.168 63.954 52.574 63.918 51.914C63.906 51.734 63.9 51.542 63.9 51.338C63.9 51.122 63.906 50.924 63.918 50.744C63.954 50.084 64.068 49.49 64.26 48.962C64.464 48.434 64.728 47.984 65.052 47.612C65.388 47.24 65.784 46.958 66.24 46.766C66.696 46.562 67.194 46.46 67.734 46.46C68.418 46.46 68.946 46.586 69.318 46.838C69.702 47.078 70.014 47.36 70.254 47.684V43.796C70.254 43.664 70.302 43.55 70.398 43.454C70.494 43.358 70.608 43.31 70.74 43.31H71.424C71.556 43.31 71.67 43.358 71.766 43.454C71.862 43.55 71.91 43.664 71.91 43.796V47.684C72.15 47.36 72.456 47.078 72.828 46.838C73.212 46.586 73.746 46.46 74.43 46.46C74.97 46.46 75.468 46.562 75.924 46.766C76.38 46.958 76.77 47.24 77.094 47.612C77.43 47.984 77.694 48.434 77.886 48.962C78.09 49.49 78.21 50.084 78.246 50.744C78.258 50.924 78.264 51.122 78.264 51.338C78.264 51.542 78.258 51.734 78.246 51.914C78.21 52.574 78.09 53.168 77.886 53.696C77.694 54.224 77.43 54.674 77.094 55.046C76.77 55.406 76.38 55.688 75.924 55.892C75.468 56.084 74.97 56.18 74.43 56.18C74.082 56.18 73.776 56.144 73.512 56.072C73.248 56 73.014 55.91 72.81 55.802C72.618 55.682 72.444 55.55 72.288 55.406C72.144 55.25 72.018 55.1 71.91 54.956V58.934C71.91 59.066 71.862 59.18 71.766 59.276C71.67 59.372 71.556 59.42 71.424 59.42H70.74C70.608 59.42 70.494 59.372 70.398 59.276C70.302 59.18 70.254 59.066 70.254 58.934V54.956C70.146 55.1 70.014 55.25 69.858 55.406C69.714 55.55 69.54 55.682 69.336 55.802C69.144 55.91 68.916 56 68.652 56.072C68.388 56.144 68.082 56.18 67.734 56.18ZM70.254 50.546C70.218 49.766 69.99 49.148 69.57 48.692C69.162 48.236 68.61 48.008 67.914 48.008C67.17 48.008 66.6 48.26 66.204 48.764C65.82 49.268 65.604 49.952 65.556 50.816C65.544 51.152 65.544 51.488 65.556 51.824C65.604 52.688 65.808 53.372 66.168 53.876C66.54 54.38 67.122 54.632 67.914 54.632C68.586 54.632 69.132 54.404 69.552 53.948C69.984 53.48 70.218 52.82 70.254 51.968C70.266 51.788 70.272 51.554 70.272 51.266C70.272 50.966 70.266 50.726 70.254 50.546ZM71.91 50.546C71.898 50.726 71.892 50.966 71.892 51.266C71.892 51.554 71.898 51.788 71.91 51.968C71.946 52.82 72.174 53.48 72.594 53.948C73.026 54.404 73.578 54.632 74.25 54.632C75.042 54.632 75.618 54.38 75.978 53.876C76.35 53.372 76.56 52.688 76.608 51.824C76.62 51.488 76.62 51.152 76.608 50.816C76.56 49.952 76.338 49.268 75.942 48.764C75.558 48.26 74.994 48.008 74.25 48.008C73.554 48.008 72.996 48.236 72.576 48.692C72.168 49.148 71.946 49.766 71.91 50.546ZM79.8559 53.642C79.8559 53.162 79.9519 52.742 80.1439 52.382C80.3359 52.022 80.5999 51.716 80.9359 51.464C81.2719 51.212 81.6619 51.008 82.1059 50.852C82.5619 50.696 83.0419 50.576 83.5459 50.492L86.0839 50.078V49.844C86.0839 49.232 85.8799 48.776 85.4719 48.476C85.0759 48.164 84.5779 48.008 83.9779 48.008C83.4499 48.008 83.0479 48.104 82.7719 48.296C82.5079 48.488 82.2799 48.716 82.0879 48.98C82.0159 49.076 81.9379 49.142 81.8539 49.178C81.7699 49.214 81.6559 49.232 81.5119 49.232H80.9719C80.8399 49.232 80.7199 49.184 80.6119 49.088C80.5159 48.992 80.4739 48.878 80.4859 48.746C80.5099 48.482 80.6119 48.212 80.7919 47.936C80.9839 47.66 81.2359 47.414 81.5479 47.198C81.8719 46.982 82.2379 46.808 82.6459 46.676C83.0659 46.532 83.5099 46.46 83.9779 46.46C84.5179 46.46 85.0159 46.538 85.4719 46.694C85.9399 46.85 86.3359 47.078 86.6599 47.378C86.9959 47.678 87.2539 48.05 87.4339 48.494C87.6259 48.938 87.7219 49.448 87.7219 50.024V55.514C87.7219 55.646 87.6739 55.76 87.5779 55.856C87.4819 55.952 87.3679 56 87.2359 56H86.5699C86.4379 56 86.3239 55.952 86.2279 55.856C86.1319 55.76 86.0839 55.646 86.0839 55.514V54.776C85.9759 55.004 85.8079 55.208 85.5799 55.388C85.3519 55.556 85.0879 55.7 84.7879 55.82C84.4999 55.94 84.1939 56.03 83.8699 56.09C83.5579 56.15 83.2639 56.18 82.9879 56.18C82.5199 56.18 82.0879 56.114 81.6919 55.982C81.3079 55.85 80.9779 55.676 80.7019 55.46C80.4379 55.232 80.2279 54.962 80.0719 54.65C79.9279 54.338 79.8559 54.002 79.8559 53.642ZM83.1679 54.632C83.5999 54.632 83.9959 54.566 84.3559 54.434C84.7159 54.302 85.0219 54.122 85.2739 53.894C85.5379 53.654 85.7359 53.372 85.8679 53.048C86.0119 52.724 86.0839 52.364 86.0839 51.968V51.518L83.9599 51.86C83.2039 51.98 82.6039 52.172 82.1599 52.436C81.7159 52.7 81.4939 53.042 81.4939 53.462C81.4939 53.594 81.5239 53.726 81.5839 53.858C81.6439 53.99 81.7399 54.116 81.8719 54.236C82.0039 54.356 82.1719 54.452 82.3759 54.524C82.5919 54.596 82.8559 54.632 83.1679 54.632ZM95.928 43.346C95.928 43.766 95.832 44.15 95.64 44.498C95.46 44.846 95.226 45.188 94.938 45.524C94.662 45.848 94.35 46.184 94.002 46.532C93.666 46.868 93.336 47.24 93.012 47.648C93.312 47.576 93.642 47.54 94.002 47.54C94.602 47.54 95.154 47.636 95.658 47.828C96.162 48.02 96.594 48.302 96.954 48.674C97.326 49.046 97.614 49.502 97.818 50.042C98.022 50.57 98.124 51.176 98.124 51.86C98.124 52.496 98.022 53.084 97.818 53.624C97.614 54.152 97.326 54.608 96.954 54.992C96.594 55.364 96.162 55.658 95.658 55.874C95.154 56.078 94.602 56.18 94.002 56.18C93.402 56.18 92.85 56.078 92.346 55.874C91.842 55.658 91.404 55.364 91.032 54.992C90.672 54.608 90.39 54.152 90.186 53.624C89.982 53.084 89.88 52.496 89.88 51.86C89.88 50.936 89.988 50.132 90.204 49.448C90.42 48.752 90.69 48.146 91.014 47.63C91.35 47.114 91.704 46.664 92.076 46.28C92.46 45.896 92.814 45.542 93.138 45.218C93.474 44.894 93.75 44.588 93.966 44.3C94.182 44 94.29 43.682 94.29 43.346C94.29 43.214 94.338 43.1 94.434 43.004C94.53 42.908 94.644 42.86 94.776 42.86H95.442C95.574 42.86 95.688 42.908 95.784 43.004C95.88 43.1 95.928 43.214 95.928 43.346ZM94.002 49.088C93.162 49.088 92.538 49.346 92.13 49.862C91.722 50.366 91.518 51.032 91.518 51.86C91.518 52.688 91.722 53.36 92.13 53.876C92.538 54.38 93.162 54.632 94.002 54.632C94.842 54.632 95.466 54.38 95.874 53.876C96.282 53.36 96.486 52.688 96.486 51.86C96.486 51.032 96.282 50.366 95.874 49.862C95.466 49.346 94.842 49.088 94.002 49.088ZM104.743 56.18C103.999 56.18 103.405 56.054 102.961 55.802C102.517 55.538 102.181 55.256 101.953 54.956V58.934C101.953 59.066 101.905 59.18 101.809 59.276C101.713 59.372 101.599 59.42 101.467 59.42H100.801C100.669 59.42 100.555 59.372 100.459 59.276C100.363 59.18 100.315 59.066 100.315 58.934V47.126C100.315 46.994 100.363 46.88 100.459 46.784C100.555 46.688 100.669 46.64 100.801 46.64H101.467C101.599 46.64 101.713 46.688 101.809 46.784C101.905 46.88 101.953 46.994 101.953 47.126V47.684C102.193 47.36 102.535 47.078 102.979 46.838C103.423 46.586 104.011 46.46 104.743 46.46C105.307 46.46 105.829 46.562 106.309 46.766C106.801 46.958 107.227 47.24 107.587 47.612C107.947 47.984 108.235 48.434 108.451 48.962C108.667 49.49 108.793 50.084 108.829 50.744C108.841 50.924 108.847 51.122 108.847 51.338C108.847 51.542 108.841 51.734 108.829 51.914C108.793 52.574 108.667 53.168 108.451 53.696C108.235 54.224 107.947 54.674 107.587 55.046C107.227 55.406 106.801 55.688 106.309 55.892C105.829 56.084 105.307 56.18 104.743 56.18ZM101.953 50.546C101.941 50.726 101.935 50.966 101.935 51.266C101.935 51.554 101.941 51.788 101.953 51.968C101.989 52.82 102.241 53.48 102.709 53.948C103.189 54.404 103.807 54.632 104.563 54.632C105.355 54.632 105.979 54.38 106.435 53.876C106.891 53.372 107.143 52.688 107.191 51.824C107.203 51.488 107.203 51.152 107.191 50.816C107.143 49.952 106.891 49.268 106.435 48.764C105.979 48.26 105.355 48.008 104.563 48.008C103.819 48.008 103.207 48.236 102.727 48.692C102.247 49.148 101.989 49.766 101.953 50.546ZM118.273 56C118.141 56 118.027 55.952 117.931 55.856C117.835 55.76 117.787 55.646 117.787 55.514V49.484L112.549 55.802C112.453 55.934 112.321 56 112.153 56H111.541C111.409 56 111.295 55.952 111.199 55.856C111.115 55.76 111.073 55.646 111.073 55.514V47.126C111.073 46.994 111.121 46.88 111.217 46.784C111.313 46.688 111.427 46.64 111.559 46.64H112.225C112.357 46.64 112.471 46.688 112.567 46.784C112.663 46.88 112.711 46.994 112.711 47.126V53.21L117.949 46.838C118.009 46.778 118.063 46.73 118.111 46.694C118.171 46.658 118.249 46.64 118.345 46.64H118.939C119.071 46.64 119.185 46.688 119.281 46.784C119.377 46.88 119.425 46.994 119.425 47.126V55.514C119.425 55.646 119.377 55.76 119.281 55.856C119.185 55.952 119.071 56 118.939 56H118.273ZM123.767 50.24L127.511 46.946C127.583 46.886 127.673 46.82 127.781 46.748C127.901 46.676 128.045 46.64 128.213 46.64H129.077C129.197 46.64 129.299 46.682 129.383 46.766C129.467 46.85 129.509 46.952 129.509 47.072C129.509 47.132 129.497 47.192 129.473 47.252C129.461 47.3 129.407 47.36 129.311 47.432L124.955 51.248L129.743 55.226C129.863 55.322 129.923 55.436 129.923 55.568C129.923 55.688 129.881 55.79 129.797 55.874C129.713 55.958 129.611 56 129.491 56H128.555C128.375 56 128.219 55.964 128.087 55.892C127.967 55.82 127.877 55.754 127.817 55.694L123.767 52.328V55.514C123.767 55.646 123.719 55.76 123.623 55.856C123.527 55.952 123.413 56 123.281 56H122.615C122.483 56 122.369 55.952 122.273 55.856C122.177 55.76 122.129 55.646 122.129 55.514V47.126C122.129 46.994 122.177 46.88 122.273 46.784C122.369 46.688 122.483 46.64 122.615 46.64H123.281C123.413 46.64 123.527 46.688 123.623 46.784C123.719 46.88 123.767 46.994 123.767 47.126V50.24ZM130.727 53.642C130.727 53.162 130.823 52.742 131.015 52.382C131.207 52.022 131.471 51.716 131.807 51.464C132.143 51.212 132.533 51.008 132.977 50.852C133.433 50.696 133.913 50.576 134.417 50.492L136.955 50.078V49.844C136.955 49.232 136.751 48.776 136.343 48.476C135.947 48.164 135.449 48.008 134.849 48.008C134.321 48.008 133.919 48.104 133.643 48.296C133.379 48.488 133.151 48.716 132.959 48.98C132.887 49.076 132.809 49.142 132.725 49.178C132.641 49.214 132.527 49.232 132.383 49.232H131.843C131.711 49.232 131.591 49.184 131.483 49.088C131.387 48.992 131.345 48.878 131.357 48.746C131.381 48.482 131.483 48.212 131.663 47.936C131.855 47.66 132.107 47.414 132.419 47.198C132.743 46.982 133.109 46.808 133.517 46.676C133.937 46.532 134.381 46.46 134.849 46.46C135.389 46.46 135.887 46.538 136.343 46.694C136.811 46.85 137.207 47.078 137.531 47.378C137.867 47.678 138.125 48.05 138.305 48.494C138.497 48.938 138.593 49.448 138.593 50.024V55.514C138.593 55.646 138.545 55.76 138.449 55.856C138.353 55.952 138.239 56 138.107 56H137.441C137.309 56 137.195 55.952 137.099 55.856C137.003 55.76 136.955 55.646 136.955 55.514V54.776C136.847 55.004 136.679 55.208 136.451 55.388C136.223 55.556 135.959 55.7 135.659 55.82C135.371 55.94 135.065 56.03 134.741 56.09C134.429 56.15 134.135 56.18 133.859 56.18C133.391 56.18 132.959 56.114 132.563 55.982C132.179 55.85 131.849 55.676 131.573 55.46C131.309 55.232 131.099 54.962 130.943 54.65C130.799 54.338 130.727 54.002 130.727 53.642ZM134.039 54.632C134.471 54.632 134.867 54.566 135.227 54.434C135.587 54.302 135.893 54.122 136.145 53.894C136.409 53.654 136.607 53.372 136.739 53.048C136.883 52.724 136.955 52.364 136.955 51.968V51.518L134.831 51.86C134.075 51.98 133.475 52.172 133.031 52.436C132.587 52.7 132.365 53.042 132.365 53.462C132.365 53.594 132.395 53.726 132.455 53.858C132.515 53.99 132.611 54.116 132.743 54.236C132.875 54.356 133.043 54.452 133.247 54.524C133.463 54.596 133.727 54.632 134.039 54.632ZM150.222 52.4L153.084 47C153.12 46.928 153.186 46.85 153.282 46.766C153.39 46.682 153.546 46.64 153.75 46.64H154.344C154.476 46.64 154.59 46.688 154.686 46.784C154.782 46.88 154.83 46.994 154.83 47.126V55.514C154.83 55.646 154.782 55.76 154.686 55.856C154.59 55.952 154.476 56 154.344 56H153.678C153.546 56 153.432 55.952 153.336 55.856C153.24 55.76 153.192 55.646 153.192 55.514V50.096L151.068 54.02C151.008 54.128 150.93 54.23 150.834 54.326C150.75 54.422 150.618 54.47 150.438 54.47H150.006C149.826 54.47 149.688 54.422 149.592 54.326C149.508 54.23 149.436 54.128 149.376 54.02L147.252 50.096V55.514C147.252 55.646 147.204 55.76 147.108 55.856C147.012 55.952 146.898 56 146.766 56H146.1C145.968 56 145.854 55.952 145.758 55.856C145.662 55.76 145.614 55.646 145.614 55.514V47.126C145.614 46.994 145.662 46.88 145.758 46.784C145.854 46.688 145.968 46.64 146.1 46.64H146.694C146.898 46.64 147.048 46.682 147.144 46.766C147.252 46.85 147.324 46.928 147.36 47L150.222 52.4ZM157.1 50.42C157.148 49.868 157.28 49.352 157.496 48.872C157.712 48.392 157.994 47.972 158.342 47.612C158.69 47.252 159.104 46.97 159.584 46.766C160.076 46.562 160.622 46.46 161.222 46.46C161.87 46.46 162.446 46.568 162.95 46.784C163.466 46.988 163.904 47.288 164.264 47.684C164.624 48.08 164.9 48.56 165.092 49.124C165.284 49.688 165.38 50.318 165.38 51.014V51.5C165.38 51.632 165.332 51.746 165.236 51.842C165.14 51.938 165.026 51.986 164.894 51.986H158.702V52.094C158.726 52.91 158.972 53.54 159.44 53.984C159.92 54.416 160.514 54.632 161.222 54.632C161.882 54.632 162.374 54.542 162.698 54.362C163.034 54.17 163.304 53.96 163.508 53.732C163.604 53.636 163.688 53.57 163.76 53.534C163.832 53.498 163.94 53.48 164.084 53.48H164.624C164.756 53.48 164.876 53.528 164.984 53.624C165.092 53.72 165.134 53.834 165.11 53.966C165.074 54.182 164.972 54.422 164.804 54.686C164.636 54.938 164.39 55.178 164.066 55.406C163.754 55.622 163.358 55.808 162.878 55.964C162.41 56.108 161.858 56.18 161.222 56.18C160.622 56.18 160.082 56.078 159.602 55.874C159.122 55.658 158.702 55.37 158.342 55.01C157.994 54.638 157.712 54.206 157.496 53.714C157.28 53.21 157.148 52.664 157.1 52.076C157.04 51.524 157.04 50.972 157.1 50.42ZM158.702 50.474H163.76V50.42C163.76 49.688 163.526 49.106 163.058 48.674C162.602 48.23 161.99 48.008 161.222 48.008C160.874 48.008 160.55 48.068 160.25 48.188C159.95 48.296 159.686 48.458 159.458 48.674C159.23 48.878 159.05 49.13 158.918 49.43C158.786 49.73 158.714 50.06 158.702 50.42V50.474ZM173.131 43.346C173.131 43.766 173.035 44.15 172.843 44.498C172.663 44.846 172.429 45.188 172.141 45.524C171.865 45.848 171.553 46.184 171.205 46.532C170.869 46.868 170.539 47.24 170.215 47.648C170.515 47.576 170.845 47.54 171.205 47.54C171.805 47.54 172.357 47.636 172.861 47.828C173.365 48.02 173.797 48.302 174.157 48.674C174.529 49.046 174.817 49.502 175.021 50.042C175.225 50.57 175.327 51.176 175.327 51.86C175.327 52.496 175.225 53.084 175.021 53.624C174.817 54.152 174.529 54.608 174.157 54.992C173.797 55.364 173.365 55.658 172.861 55.874C172.357 56.078 171.805 56.18 171.205 56.18C170.605 56.18 170.053 56.078 169.549 55.874C169.045 55.658 168.607 55.364 168.235 54.992C167.875 54.608 167.593 54.152 167.389 53.624C167.185 53.084 167.083 52.496 167.083 51.86C167.083 50.936 167.191 50.132 167.407 49.448C167.623 48.752 167.893 48.146 168.217 47.63C168.553 47.114 168.907 46.664 169.279 46.28C169.663 45.896 170.017 45.542 170.341 45.218C170.677 44.894 170.953 44.588 171.169 44.3C171.385 44 171.493 43.682 171.493 43.346C171.493 43.214 171.541 43.1 171.637 43.004C171.733 42.908 171.847 42.86 171.979 42.86H172.645C172.777 42.86 172.891 42.908 172.987 43.004C173.083 43.1 173.131 43.214 173.131 43.346ZM171.205 49.088C170.365 49.088 169.741 49.346 169.333 49.862C168.925 50.366 168.721 51.032 168.721 51.86C168.721 52.688 168.925 53.36 169.333 53.876C169.741 54.38 170.365 54.632 171.205 54.632C172.045 54.632 172.669 54.38 173.077 53.876C173.485 53.36 173.689 52.688 173.689 51.86C173.689 51.032 173.485 50.366 173.077 49.862C172.669 49.346 172.045 49.088 171.205 49.088ZM177.086 50.42C177.134 49.868 177.266 49.352 177.482 48.872C177.698 48.392 177.98 47.972 178.328 47.612C178.676 47.252 179.09 46.97 179.57 46.766C180.062 46.562 180.608 46.46 181.208 46.46C181.856 46.46 182.432 46.568 182.936 46.784C183.452 46.988 183.89 47.288 184.25 47.684C184.61 48.08 184.886 48.56 185.078 49.124C185.27 49.688 185.366 50.318 185.366 51.014V51.5C185.366 51.632 185.318 51.746 185.222 51.842C185.126 51.938 185.012 51.986 184.88 51.986H178.688V52.094C178.712 52.91 178.958 53.54 179.426 53.984C179.906 54.416 180.5 54.632 181.208 54.632C181.868 54.632 182.36 54.542 182.684 54.362C183.02 54.17 183.29 53.96 183.494 53.732C183.59 53.636 183.674 53.57 183.746 53.534C183.818 53.498 183.926 53.48 184.07 53.48H184.61C184.742 53.48 184.862 53.528 184.97 53.624C185.078 53.72 185.12 53.834 185.096 53.966C185.06 54.182 184.958 54.422 184.79 54.686C184.622 54.938 184.376 55.178 184.052 55.406C183.74 55.622 183.344 55.808 182.864 55.964C182.396 56.108 181.844 56.18 181.208 56.18C180.608 56.18 180.068 56.078 179.588 55.874C179.108 55.658 178.688 55.37 178.328 55.01C177.98 54.638 177.698 54.206 177.482 53.714C177.266 53.21 177.134 52.664 177.086 52.076C177.026 51.524 177.026 50.972 177.086 50.42ZM178.688 50.474H183.746V50.42C183.746 49.688 183.512 49.106 183.044 48.674C182.588 48.23 181.976 48.008 181.208 48.008C180.86 48.008 180.536 48.068 180.236 48.188C179.936 48.296 179.672 48.458 179.444 48.674C179.216 48.878 179.036 49.13 178.904 49.43C178.772 49.73 178.7 50.06 178.688 50.42V50.474ZM188.582 47.126C188.582 46.994 188.63 46.88 188.726 46.784C188.822 46.688 188.936 46.64 189.068 46.64H195.134C195.266 46.64 195.38 46.688 195.476 46.784C195.572 46.88 195.62 46.994 195.62 47.126V55.514C195.62 55.646 195.572 55.76 195.476 55.856C195.38 55.952 195.266 56 195.134 56H194.468C194.336 56 194.222 55.952 194.126 55.856C194.03 55.76 193.982 55.646 193.982 55.514V48.188H190.22V52.886C190.22 53.378 190.166 53.828 190.058 54.236C189.962 54.632 189.794 54.974 189.554 55.262C189.326 55.55 189.02 55.778 188.636 55.946C188.252 56.102 187.778 56.18 187.214 56.18H186.998C186.866 56.18 186.752 56.132 186.656 56.036C186.56 55.94 186.512 55.826 186.512 55.694V55.118C186.512 54.986 186.56 54.872 186.656 54.776C186.752 54.68 186.866 54.632 186.998 54.632H187.214C187.766 54.632 188.132 54.476 188.312 54.164C188.492 53.84 188.582 53.408 188.582 52.868V47.126ZM205.513 56C205.381 56 205.267 55.952 205.171 55.856C205.075 55.76 205.027 55.646 205.027 55.514V49.484L199.789 55.802C199.693 55.934 199.561 56 199.393 56H198.781C198.649 56 198.535 55.952 198.439 55.856C198.355 55.76 198.313 55.646 198.313 55.514V47.126C198.313 46.994 198.361 46.88 198.457 46.784C198.553 46.688 198.667 46.64 198.799 46.64H199.465C199.597 46.64 199.711 46.688 199.807 46.784C199.903 46.88 199.951 46.994 199.951 47.126V53.21L205.189 46.838C205.249 46.778 205.303 46.73 205.351 46.694C205.411 46.658 205.489 46.64 205.585 46.64H206.179C206.311 46.64 206.425 46.688 206.521 46.784C206.617 46.88 206.665 46.994 206.665 47.126V55.514C206.665 55.646 206.617 55.76 206.521 55.856C206.425 55.952 206.311 56 206.179 56H205.513Z" fill="#8B76AC"/>
</svg>
