<svg width="63" height="37" viewBox="0 0 63 37" fill="none" xmlns="http://www.w3.org/2000/svg">
<path d="M9.46296 0H5.18518C2.32149 0 0 2.33316 0 5.21127V31.7887C0 34.6668 2.32149 37 5.18519 37H23.2037C26.0674 37 28.3889 34.6668 28.3889 31.7887V0.521127C28.3889 0.233316 28.1567 0 27.8704 0H23.5926C20.7289 0 18.4074 2.33316 18.4074 5.21127V26.4472C18.4074 26.735 18.1753 26.9683 17.8889 26.9683H10.5C10.2136 26.9683 9.98148 26.735 9.98148 26.4472V0.521127C9.98148 0.233316 9.74933 0 9.46296 0Z" fill="#2C2C2C"/>
<path d="M57.8148 0H35.1296C34.8433 0 34.6111 0.233317 34.6111 0.521127V4.82042C34.6111 7.69853 36.9326 10.0317 39.7963 10.0317H44.5926H52.5C52.7864 10.0317 53.0185 10.265 53.0185 10.5528V26.4472C53.0185 26.735 52.7864 26.9683 52.5 26.9683H44.5926H35.1296C34.8433 26.9683 34.6111 27.2016 34.6111 27.4894V31.7887C34.6111 34.6668 36.9326 37 39.7963 37H57.8148C60.6785 37 63 34.6668 63 31.7887V5.21127C63 2.33316 60.6785 0 57.8148 0Z" fill="#2C2C2C"/>
</svg>
