<svg width="131" height="131" viewBox="0 0 131 131" fill="none" xmlns="http://www.w3.org/2000/svg">
<circle cx="65.5" cy="65.5" r="65.5" fill="#F8F8F8"/>
<mask id="mask0" mask-type="alpha" maskUnits="userSpaceOnUse" x="0" y="0" width="131" height="131">
<circle cx="65.5" cy="65.5" r="65.5" fill="#6E55E4"/>
</mask>
<g mask="url(#mask0)">
<path d="M83.7221 97.4829V83.3105H47.2784V97.4829L65.5003 113.68L83.7221 97.4829Z" fill="#E6AF78"/>
<path d="M111.898 104.113L86.844 98.2176C86.4655 98.1286 86.1176 97.9774 85.7919 97.7942L65.5 109.631L45.9994 97.2217C45.4946 97.6969 44.868 98.0502 44.1563 98.2178L19.1027 104.113C15.4443 104.974 12.8589 108.238 12.8589 111.996V127.853C12.8589 130.09 14.6718 131.902 16.9081 131.902H114.091C116.328 131.902 118.141 130.09 118.141 127.853V111.996C118.141 108.238 115.556 104.973 111.898 104.113Z" fill="#EFF2FA"/>
<path d="M47.2784 83.3105V98.2637C70.233 106.534 83.7221 85.8354 83.7221 85.8354V83.3103H47.2784V83.3105Z" fill="#D29B6E"/>
<path d="M39.1794 36.7437L40.9437 75.559C41.1084 79.1851 42.8865 82.5478 45.7903 84.7256L54.1617 91.0043C56.2645 92.5812 58.822 93.434 61.4505 93.434H69.5493C72.1778 93.434 74.7352 92.5815 76.8381 91.0043L85.2095 84.7256C88.1133 82.5476 89.8914 79.1853 90.056 75.559L91.8203 36.7437C91.8201 36.7437 39.1794 36.7437 39.1794 36.7437Z" fill="#F0C087"/>
<path d="M59.4261 44.8421C67.5249 44.8421 79.6726 42.8175 82.5539 36.7434H39.1794L40.9437 75.5587C41.1084 79.1848 42.8865 82.5473 45.7905 84.7254L54.1619 91.0041C56.2648 92.581 58.8222 93.4338 61.4508 93.4338H65.5C61.4508 93.4338 53.352 85.335 53.352 75.2119C53.352 70.2608 53.352 56.9901 53.352 50.916C53.352 48.8914 55.3767 44.8421 59.4261 44.8421Z" fill="#E6AF78"/>
<path d="M27.7229 118.762L14.6034 106.977C13.504 108.369 12.8595 110.121 12.8595 111.996V127.853C12.8595 130.09 14.6724 131.902 16.9087 131.902H31.0813V126.293C31.0811 123.42 29.8602 120.682 27.7229 118.762Z" fill="#E4EAF6"/>
<path d="M103.278 118.762L116.397 106.977C117.497 108.369 118.141 110.121 118.141 111.996V127.853C118.141 130.09 116.328 131.902 114.092 131.902H99.9193V126.293C99.9193 123.42 101.14 120.682 103.278 118.762Z" fill="#E4EAF6"/>
<path d="M70.5617 131.902H60.4384L61.7038 113.68H69.2963L70.5617 131.902Z" fill="#5B5D6E"/>
<path d="M70.5617 109.631H60.4384V113.441C60.4384 114.692 61.4517 115.705 62.702 115.705H68.2978C69.5481 115.705 70.5615 114.692 70.5615 113.441V109.631H70.5617Z" fill="#515262"/>
<path d="M46.9942 92.9759L65.5004 109.631C65.5004 109.631 60.3176 112.248 53.922 117.521C52.6026 118.609 50.6069 118.168 49.8993 116.611L41.2047 97.4837L43.9553 93.358C44.6397 92.3305 46.0765 92.1502 46.9942 92.9759Z" fill="#E4EAF6"/>
<path d="M84.0063 92.9754L65.5001 109.631C65.5001 109.631 70.6828 112.247 77.0785 117.521C78.3978 118.608 80.3935 118.168 81.1011 116.611L89.7958 97.4832L87.0452 93.3575C86.3605 92.33 84.9238 92.1497 84.0063 92.9754Z" fill="#E4EAF6"/>
<path d="M77.7746 23.3303L79.6726 36.7437C88.337 38.4766 89.5856 52.0739 89.7655 55.9576C89.798 56.6624 90.023 57.3429 90.4054 57.9359L93.7113 63.064C93.7113 63.064 92.5798 54.5857 97.7605 48.8915C97.7607 48.8915 99.5397 15.2316 77.7746 23.3303Z" fill="#785550"/>
<path d="M95.742 62.2008L93.4563 71.3436C93.1855 72.4273 92.212 73.1872 91.0948 73.1872C89.867 73.1872 88.8316 72.2732 88.6793 71.055L87.5102 61.7037C87.1974 59.2006 89.1488 56.99 91.6714 56.99H91.6732C94.4018 56.9902 96.4037 59.5539 95.742 62.2008Z" fill="#F0C087"/>
<path d="M41.1201 19.7028L44.1147 21.7485C30.5749 31.7452 33.1055 48.8916 33.1055 48.8916C37.1548 52.9408 37.1548 63.0642 37.1548 63.0642L41.204 59.0149C41.204 59.0149 39.6413 47.3177 47.2779 42.8177C54.3642 38.6418 60.5646 40.7931 66.8917 40.7931C83.8482 40.7931 88.5935 34.4027 87.771 26.6205C87.3453 22.5937 81.1886 14.2058 65.4999 14.4725C59.1685 14.5801 47.2783 16.4971 41.1201 19.7028Z" fill="#694B4B"/>
<path d="M39.9388 39.0213C39.9388 39.0213 37.7876 30.5429 44.1147 21.7485C30.5749 31.7453 33.1055 48.8916 33.1055 48.8916C37.1548 52.9408 37.1548 63.0642 37.1548 63.0642L41.204 59.0149C41.204 59.0149 39.6413 47.3177 47.2779 42.8177C54.3642 38.6419 60.5646 40.7931 66.8917 40.7931C69.6494 40.7931 72.0525 40.6085 74.1929 40.2919C61.1346 40.7296 53.4368 30.8381 39.9388 39.0213Z" fill="#5A4146"/>
<path d="M35.2583 62.2008L37.544 71.3436C37.8149 72.4273 38.7883 73.1872 39.9055 73.1872C41.1333 73.1872 42.1687 72.2732 42.321 71.055L43.4901 61.7037C43.8029 59.2006 41.8515 56.99 39.3289 56.99H39.3271C36.5985 56.9902 34.5966 59.5539 35.2583 62.2008Z" fill="#E6AF78"/>
<path d="M91.8208 127.853H77.6482C76.53 127.853 75.6235 128.759 75.6235 129.877V131.902H93.8454V129.877C93.8454 128.759 92.9387 127.853 91.8208 127.853Z" fill="#E4EAF6"/>
</g>
</svg>
